<svg width="161" height="95" viewBox="0 0 161 95" fill="none" xmlns="http://www.w3.org/2000/svg">
<path d="M6.00491 68.3638L6.00683 30.2819C6.00711 24.6194 5.74932 19.8631 5.25527 15.9954C4.73939 12.1478 1.31594 5.84665 0.00415039 1.72327L13.4886 4.03845L19.3566 4.03824C37.2624 4.03758 51.4489 8.18053 61.9599 16.4871C72.4708 24.7937 77.7144 36.0207 77.7137 50.1493C77.713 63.8029 72.8329 74.6167 63.0734 82.6082C53.3152 90.5997 40.0949 94.6069 23.437 94.6075L13.5495 94.6079L2.65171 94.6083C3.89844 90.6026 4.75875 86.676 5.25319 82.8082C5.74763 78.9606 6.0059 74.1454 6.00619 68.3638L6.00491 68.3638ZM21.2898 84.1146C21.2987 86.0826 3.16653 93.8788 3.56578 93.7668C9.45829 92.112 43.8339 81.0733 50.6291 75.5437C58.1034 69.4614 61.8498 61.4749 61.8503 51.5487C61.8509 40.2626 58.3043 31.185 51.2119 24.2995C44.1195 17.414 29.3548 22.9981 23.0533 13.9808L17.1857 5.58564L20.9684 15.8063L21.2898 84.1134L21.2898 84.1146Z" fill="black"/>
<path d="M88.9729 67.3941L88.9748 29.3582C88.975 23.7015 88.7172 18.9524 88.2245 15.0894C87.7099 11.2464 84.289 4.95241 82.9797 0.83374L96.4475 3.14537L102.308 3.14515C120.192 3.14448 134.36 7.28269 144.858 15.5798C155.357 23.877 160.594 35.0898 160.593 49.2007C160.592 62.8391 155.719 73.6387 145.972 81.6207C136.225 89.6028 123.022 93.6042 106.383 93.6048L96.5085 93.6052L85.6236 93.6056C86.869 89.6047 87.728 85.6827 88.2225 81.8209C88.7169 77.9779 88.9739 73.1686 88.9742 67.3941L88.9729 67.3941ZM104.239 83.126C104.247 85.0905 86.1371 92.8785 86.5364 92.7665C92.4225 91.1141 126.756 80.0883 133.542 74.5658C141.007 68.4905 144.748 60.5134 144.749 50.6002C144.75 39.327 141.207 30.2612 134.123 23.384C127.04 16.5068 112.293 22.0838 105.999 13.0783L100.139 4.69373L103.917 14.9026L104.237 83.126L104.239 83.126Z" fill="black"/>
</svg>
