<svg width="209" height="282" viewBox="0 0 209 282" fill="none" xmlns="http://www.w3.org/2000/svg">
<path d="M36.4384 205.616V159.474C36.4384 152.613 36.1514 146.85 35.6016 142.164C35.0276 137.502 31.2192 129.867 29.7598 124.871L44.7593 127.677H51.2866C71.204 127.677 86.9846 132.697 98.6769 142.762C110.369 152.827 116.202 166.431 116.202 183.55C116.202 200.093 110.775 213.195 99.9192 222.878C89.0652 232.56 74.3598 237.415 55.8304 237.415H44.8321H32.71C34.0965 232.562 35.0533 227.804 35.6031 223.118C36.1528 218.456 36.4399 212.621 36.4399 205.616H36.4384ZM53.4414 224.701C53.4514 227.086 33.2826 236.531 33.7267 236.396C40.2811 234.391 78.5181 221.017 86.0764 214.318C94.3901 206.948 98.5569 197.272 98.5569 185.245C98.5569 171.57 94.6114 160.571 86.7218 152.228C78.8323 143.885 62.4091 150.65 55.3991 139.724L48.8718 129.552L53.0801 141.936L53.4414 224.7V224.701Z" fill="#D3CECE" fill-opacity="0.73"/>
<path d="M128.728 204.444V158.358C128.728 151.504 128.441 145.749 127.892 141.069C127.32 136.413 123.514 128.786 122.058 123.796L137.039 126.597H143.557C163.45 126.597 179.211 131.612 190.889 141.666C202.567 151.719 208.393 165.306 208.393 182.403C208.393 198.928 202.973 212.013 192.131 221.684C181.29 231.355 166.603 236.203 148.095 236.203H137.111H125.004C126.389 231.355 127.344 226.603 127.894 221.924C128.444 217.268 128.729 211.441 128.729 204.444H128.728ZM145.709 223.506C145.719 225.886 125.575 235.322 126.019 235.186C132.566 233.184 170.756 219.827 178.304 213.135C186.608 205.775 190.769 196.109 190.769 184.098C190.769 170.439 186.828 159.454 178.948 151.121C171.069 142.788 154.666 149.545 147.664 138.633L141.145 128.474L145.348 140.843L145.708 223.506H145.709Z" fill="#D3CECE" fill-opacity="0.73"/>
<path fill-rule="evenodd" clip-rule="evenodd" d="M118.868 72.572C118.868 72.572 118.924 64.7429 119.032 64.2546C119.141 63.7663 119.848 61.1318 121.209 56.9424C122.568 52.753 125.017 60.7506 125.017 60.7506C125.017 60.7506 127.465 65.8638 127.573 67.0618C127.682 68.2584 128.607 73.8071 129.424 76.7443C130.239 79.6814 131.164 92.4652 131.546 87.5705C131.926 82.6743 129.532 74.6767 129.859 70.4887C130.186 66.3007 128.171 54.5521 127.844 50.5255C127.519 46.4989 122.459 35.5656 122.948 35.7841C123.438 36.0011 127.028 38.6127 129.204 41.9853C131.38 45.358 130.455 45.3037 130.292 42.3652C130.129 39.428 123.982 33.0083 122.35 31.3234C120.717 29.637 115.495 20.2801 115.387 19.0307C115.278 17.7799 116.748 16.6919 119.139 15.3853C121.533 14.0803 122.622 13.8618 124.526 14.243C126.431 14.6243 126.648 15.5495 127.517 15.9836C128.387 16.4191 128.878 15.8751 126.919 13.916C124.96 11.957 121.263 12.0113 119.031 12.1755C116.8 12.3382 114.299 13.3178 113.7 14.1873C113.102 15.0569 108.151 22.7289 108.151 22.7289C108.151 22.7289 106.466 20.0631 105.322 16.5819C104.18 13.1007 105.539 14.4058 104.887 15.2768C104.234 16.1464 104.126 17.5614 104.397 19.1392C104.67 20.717 104.995 20.8256 105.812 23.5999C106.627 26.3743 105.104 25.6675 105.05 27.1896C104.995 28.7118 99.122 37.5204 94.4425 43.5089C89.7616 49.4974 75.6004 54.515 74.5965 54.6878C73.594 54.8606 118.868 72.572 118.868 72.572Z" fill="#D3CECE"/>
<path fill-rule="evenodd" clip-rule="evenodd" d="M104.948 77.5114C104.948 77.5114 107.211 74.5557 107.091 73.1378C106.971 71.7199 109.476 71.3029 110.52 71.7756C110.88 71.9383 111.689 72.6352 112.606 73.5247C114.345 75.2096 116.475 77.5842 116.67 78.2996C116.969 79.3919 116.911 80.5042 116.05 83.7669C115.188 87.0296 114.208 84.2024 114.244 82.8517C114.28 81.5009 113.359 80.9369 113.023 84.3895C112.688 87.8435 114.742 87.962 114.207 89.3814C113.671 90.8007 113.494 92.4542 113.197 94.2861C112.9 96.1181 111.888 97.6545 111.232 98.5426C110.577 99.4294 110.815 99.3708 110.937 100.789C111.057 102.207 110.044 102.385 111.297 103.624C112.55 104.864 113.683 104.094 113.624 105.986C113.566 107.877 113.032 110.123 113.926 109.118C114.819 108.112 116.19 104.98 117.798 103.382C119.408 101.785 122.806 98.9453 123.64 98.4127C124.475 97.8801 124.414 97.4674 125.488 96.2252C126.56 94.9829 125.01 94.6302 127.456 94.6874C129.902 94.7445 130.08 94.5674 130.08 94.5674L128.648 93.6236L131.093 91.9087L128.108 91.2605L128.761 87.1239C128.761 87.1239 133.612 83.3314 134.243 80.914C134.875 78.498 134.897 78.3124 134.897 78.3124C134.897 78.3124 131.918 82.4533 130.369 83.577C128.818 84.7008 128.755 81.1553 128.815 80.033C128.874 78.9107 131.077 75.658 131.911 74.0031C132.745 72.3482 135.064 64.1992 134.046 60.6467C133.029 57.0941 132.402 56.4601 131.253 54.9494C131.157 54.8238 131.081 54.7195 131.024 54.6367C130.786 54.294 130.837 54.2954 131.024 54.6367C131.343 55.2164 132.051 56.78 132.375 59.2887C132.935 63.6281 130.597 71.9355 129.942 72.7037C129.286 73.4719 128.154 75.3053 128.154 75.3053C128.154 75.3053 125.522 67.9803 124.865 67.1535C124.208 66.3282 125.511 55.2978 125.511 55.2978L123.015 64.7333C123.015 64.7333 120.837 61.0108 119.523 60.3625C118.209 59.7143 117.791 57.4968 116.299 57.3797C114.807 57.2626 114.957 57.2326 113.463 55.8747C111.971 54.5168 111.849 52.6848 111.254 53.9856C110.658 55.2864 107.791 52.3335 106.597 51.9209C105.403 51.5082 105.285 51.7438 105.166 52.809C105.048 53.8728 102.635 51.0913 101.382 51.4768C100.13 51.8623 101.735 52.3378 101.975 53.4016C102.215 54.4654 97.3781 51.8695 96.7827 52.2836C96.1872 52.6976 96.5742 52.6976 96.6941 53.4059C96.8141 54.1155 92.9343 52.4635 92.5173 53.4102C92.1003 54.3568 94.1295 55.4777 94.4879 55.9504C94.8478 56.423 90.4296 55.7176 89.2972 55.542C88.1648 55.3664 88.0906 55.8233 88.449 57.2412C88.8088 58.659 76.9466 56.9128 73.1196 49.5891C69.2941 42.2641 66.7266 40.4935 70.7192 34.8163C74.7118 29.139 83.8952 22.2752 85.9229 21.8011C87.9506 21.3271 91.7691 19.7264 93.0814 20.022C94.3951 20.3161 96.6013 18.8954 96.6599 18.3057C96.7184 17.7145 101.047 13.1253 100.514 9.74125C100.381 8.90166 100.32 8.37762 100.294 8.10204C100.261 7.76078 100.284 7.80219 100.294 8.10204C100.308 8.53326 100.296 9.49994 100.054 10.6194C99.5101 13.1439 95.6432 15.4699 95.6432 15.4699C95.6432 15.4699 94.6279 14.3476 92.2431 15.9454C89.857 17.5432 88.2462 15.0016 83.2297 10.5137C78.2132 6.02733 72.7769 -0.0554465 67.1079 0.00880822C61.4388 0.0730629 50.3977 -0.448114 46.4022 1.85934C42.4053 4.16823 38.8167 9.47281 39.545 8.48471C40.2747 7.49805 43.1207 3.69417 47.7159 4.044C52.3126 4.39383 58.2801 4.80363 59.3554 7.46092C60.4321 10.1196 52.0827 14.5018 48.6812 15.3914C45.2812 16.2809 39.1966 20.1277 36.3363 24.5041C33.4761 28.8806 28.4668 34.1452 27.2744 35.0919C26.082 36.0385 20.303 46.919 20.303 46.919C20.303 46.919 12.1921 54.1969 10.6442 57.3311C9.0948 60.4653 4.50956 70.7532 3.08301 76.252C1.65646 81.7493 -0.00285228 96.1138 3.68156e-06 98.8925C0.00285964 101.671 3.30435 122.592 3.30435 122.592C3.30435 122.592 -0.18135 95.7012 3.98549 84.5837C8.15376 73.4676 8.9263 70.3348 10.3586 70.392C11.7908 70.4505 18.4723 67.1921 18.4709 65.9512C18.4695 64.7104 16.8559 62.3473 19.1249 63.2911C21.394 64.2349 25.0325 63.4039 24.557 65.1773C24.0814 66.9508 24.5641 72.2111 26.7146 74.1002C28.8652 75.9892 29.8262 82.963 31.0214 84.795C32.2166 86.6255 31.6854 92.7155 32.0453 94.5474C32.3994 96.3537 36.195 120.629 36.5377 124.132C36.542 124.185 36.5463 124.232 36.5505 124.274C36.5777 124.603 36.5705 124.527 36.5377 124.132C36.2749 121.012 34.3914 97.9301 34.9726 95.7254C35.6266 93.2423 39.4351 81.4166 39.4351 81.4166C39.4351 81.4166 38.6597 80.8255 39.0752 78.9335C39.4908 77.043 42.0568 75.7979 42.8908 74.4386C43.7247 73.0778 46.0523 73.1949 48.6198 73.3105C51.1859 73.4262 53.9333 74.0159 56.5594 74.3672C59.1854 74.7199 62.287 73.3562 62.5255 72.8251C62.764 72.2925 66.9436 75.3039 66.8251 76.3091C66.7066 77.3143 58.1373 105.696 57.7232 108.534C57.3076 111.371 53.9719 127.107 54.7958 135.463C56.2181 149.899 67.4748 175.251 86.377 175.744C100.655 176.117 102.685 173.445 113.54 163.151C113.54 163.151 112.389 167.719 111.439 171.149C110.961 172.874 108.348 177.749 105.578 182.549C102.842 187.293 99.9528 191.963 98.8204 193.454C84.7905 211.914 64.5832 235.515 69.2927 259.563C70.3108 264.764 72.3485 272.627 76.7096 276.524C86.1342 284.947 92.2388 282.014 99.4473 272.129C100.066 271.282 94.9163 275.383 91.1593 277.987C74.3606 289.633 61.4973 236.407 97.2339 205.27C99.6786 203.139 116.018 184.56 116.076 183.142C116.135 181.722 127.403 164.628 124.405 151.387C121.408 138.146 118.001 132.059 114.657 130.88C111.312 129.7 110.611 131.148 108.871 135.378C107.13 139.607 105.245 150.633 100.413 155.19C95.5817 159.746 88.3619 162.356 81.7889 156.449C75.2173 150.543 72.5784 137.657 72.3357 132.572C72.0915 127.487 73.9936 118.382 73.9936 118.382V118.092L78.9244 121.267C78.9244 121.267 78.0919 124.846 78.0933 125.911C78.0947 126.975 79.0572 128.074 80.9093 130.142C82.7614 132.209 85.2518 134.411 84.8348 136.303C84.4192 138.196 85.5345 138.68 84.8191 140.1C84.1051 141.52 84.0951 139.877 83.988 144.299C83.8809 148.72 83.9651 147.442 85.0633 145.717C86.1614 143.991 84.1922 149.835 86.794 146.307L88.5832 143.881L89.4571 141.545C89.4571 141.545 89.6799 139.86 89.7385 138.736C89.797 137.612 91.3806 135.66 90.6038 134.42C89.827 133.179 90.8409 132.823 90.8409 132.823L90.838 130.222C90.838 130.222 93.8825 130.75 94.3023 132.111C94.7221 133.47 95.616 131.754 94.7178 129.805C93.8196 127.856 96.747 130.513 96.747 130.513C96.747 130.513 96.7456 128.621 95.8488 127.439C94.952 126.256 94.8335 126.849 93.5783 125.962C92.3231 125.077 91.2464 121.293 89.6328 120.703C88.0206 120.114 89.45 116.033 90.4039 115.205C91.3578 114.376 93.5069 114.669 92.2503 111.833C90.9951 108.998 89.3215 108.466 91.2307 106.632C93.1399 104.797 94.1209 103.61 92.7943 101.111C91.4692 98.6126 91.5206 98.1757 89.013 97.0548C86.5055 95.9339 85.9043 92.0915 85.4859 91.0862C85.0675 90.081 86.9168 87.715 88.1077 86.1172C89.3001 84.5208 93.4184 84.8121 93.4184 84.8121C93.4184 84.8121 96.2886 88.4161 98.1393 89.834C99.9913 91.2505 100.515 93.2152 100.158 93.9848C99.8014 94.7545 99.1803 94.0934 99.0417 97.1647C98.9218 99.8406 99.0346 101.331 99.2102 101.091C99.7343 100.377 100.297 99.7121 101.728 97.3404L102.449 102.04C102.449 102.04 104.39 101.24 104.597 100.176C104.804 99.1109 105.91 100.884 105.91 100.884C105.91 100.884 106.907 96.9363 106.489 96.2266C106.07 95.517 105.936 95.5612 104.829 93.8478C103.723 92.1343 100.644 86.4028 100.523 84.9835C100.403 83.5642 100.977 82.1063 102.41 83.3457C103.844 84.5865 104.941 86.7526 104.941 86.7526L107.45 88.9073L106.137 89.7669L108.823 90.0596L110.91 86.924L109.532 81.6637C109.532 81.6637 106.936 81.311 105.859 79.8931C104.784 78.4752 104.936 77.5142 104.936 77.5142L104.948 77.5114Z" fill="#D3CECE"/>
<path d="M67.1209 99.3576C67.1266 99.379 69.2657 106.857 72.086 108.395C73.2726 109.042 75.5431 108.633 77.7565 107.951C78.122 107.838 78.4862 107.718 78.8432 107.594C81.285 106.408 83.6655 105.597 83.6797 105.593L91.4408 103.007L84.1224 106.665C84.1096 106.671 81.7662 107.818 79.0202 108.73C76.8226 109.773 74.7449 111.043 74.7806 112.109C74.822 113.332 74.4693 113.933 74.2279 114.345C74.1208 114.526 74.0894 114.583 75.2961 115.42C76.2043 116.05 77.8293 116.795 79.5929 117.603C83.07 119.197 87.0712 121.031 87.8152 123.059C88.4249 124.724 88.4935 125.935 88.5506 126.956C88.5877 127.634 88.622 128.221 88.8248 128.762C89.316 130.076 90.8182 132.67 90.8254 132.674L89.9871 131.666C89.9786 131.659 88.3449 130.801 87.7338 129.169C87.4682 128.461 87.4296 127.792 87.3868 127.021C87.3339 126.082 87.2711 124.97 86.7185 123.462C86.1402 121.884 82.3774 120.16 79.1073 118.661C77.2924 117.829 75.6217 117.063 74.6335 116.377C72.5358 114.922 72.6972 114.647 73.2227 113.755C73.3954 113.461 73.6468 113.034 73.6168 112.143C73.5882 111.325 74.2794 110.481 75.3104 109.683C73.8067 109.924 72.4373 109.913 71.5262 109.416C68.2747 107.642 65.0589 95.6137 65.0518 95.5909L67.118 99.3562L67.1209 99.3576Z" fill="#D3CECE"/>
<path d="M86.1232 109.814C85.5363 110.065 83.2058 110.834 82.9902 111.746C82.8674 112.261 82.7432 113.302 83.2187 114.326C83.5214 114.98 84.0769 115.637 85.0451 116.16C87.8239 118.086 89.3105 120.963 89.379 120.555L90.4057 121.233C90.6199 121.51 87.2442 118.76 84.4925 117.188C83.2701 116.526 82.5575 115.673 82.1606 114.814C81.5408 113.477 81.6965 112.139 81.8536 111.477C82.1192 110.357 87.3184 108.852 89.3861 108.252L90.1058 108.038L86.1232 109.813V109.814Z" fill="#D3CECE"/>
<path d="M62.8809 91.9769C63.0665 91.3586 65.3013 86.0112 68.8241 82.4901C70.8618 80.4525 73.2109 78.5377 75.577 77.4596C81.893 74.581 88.0861 73.7286 88.0904 73.7286C82.6884 74.9094 79.7039 76.2845 75.667 78.1236C73.4508 79.1331 71.2145 80.9637 69.2568 82.9213C65.8639 86.3139 63.7476 90.4005 63.5834 90.9474L62.8809 91.9769Z" fill="#D3CECE"/>
<path d="M90.5586 70.5244C90.57 70.5358 96.5247 75.2935 96.7332 77.0627C96.9317 78.759 94.7297 85.8342 94.7226 85.8499L93.8187 84.7518C93.8244 84.7375 95.7422 78.6291 95.5751 77.1955C95.4152 75.8361 91.9766 72.3978 91.9666 72.3892L90.5586 70.5258V70.5244Z" fill="#D3CECE"/>
<path d="M90.3767 63.088C90.3581 63.0837 79.6554 61.436 77.1579 59.207C75.9726 58.1504 73.9835 56.4569 71.6973 54.8791C69.4368 53.3199 66.8878 51.8763 64.5645 51.2951C62.4197 50.7597 61.4844 49.6331 60.8218 48.8349C60.6476 48.625 60.4934 48.4394 60.3577 48.3223C60.0407 48.0467 59.6066 48.2723 58.0958 50.0129C54.4373 54.228 53.719 55.4017 53.6462 55.5288L51.1272 59.1456L52.6666 55.069L58.4828 42.7364C58.4942 42.7121 62.8952 33.7593 67.1749 30.2667C69.2611 28.5633 72.4427 26.5357 75.1144 24.8336C76.9251 23.6785 78.4916 22.7161 79.2456 22.2435C78.9871 22.3263 78.6373 22.4291 78.2017 22.5262C76.9794 22.8003 75.3343 23.2601 73.5565 23.8598C69.9052 25.0907 65.7041 26.9041 63.4964 28.8703C60.9717 31.1177 55.9081 37.8088 51.3286 43.2333C47.8158 47.3942 44.8756 51.0481 44.6342 52.2561C44.4115 53.3698 43.212 56.6197 42.378 61.2546C41.794 64.503 37.3744 84.9246 37.3729 85.243C37.4172 86.421 35.875 91.8512 35.875 93.0193L36.1677 88.9041C36.1677 88.8955 36.282 87.2535 36.2905 85.2373C35.9964 77.294 37.6928 61.9843 39.6263 54.9719C39.9119 53.9396 40.4417 52.4017 41.1014 50.9924C42.0681 48.9277 43.2976 47.0672 43.6161 46.6417C43.9516 46.1947 49.7093 39.7379 53.9104 34.7574C56.208 32.0316 58.1543 29.8155 58.7369 29.3943C59.6566 28.7303 65.3185 25.4391 70.3264 22.806C62.1284 24.4795 54.4559 27.8907 46.8861 31.3691C48.3398 28.8446 55.2684 24.4524 57.2961 23.6242C59.9707 22.5319 63.6692 21.4081 67.4619 20.2744C72.407 18.798 77.0079 17.7513 77.7719 17.7513L82.9083 18.4182C80.4451 17.263 73.428 15.2069 70.7962 15.6424C67.8803 16.0579 61.8642 17.076 61.8428 17.0788L57.0376 18.1954C67.2548 9.94369 73.4822 14.4587 84.9889 17.3872C82.6484 14.7342 75.8641 7.99892 74.7046 7.09792C73.7878 6.38541 71.7801 4.98751 69.5796 4.06368C67.3134 3.11413 64.0119 3.02561 61.4844 2.87568C58.31 2.68863 54.5872 2.37021 52.768 2.76002C49.7649 3.62674 46.7005 2.94422 46.6148 2.94136L46.472 2.9585C46.6091 2.90424 50.2019 3.35687 53.1064 2.23313C55.4226 1.96183 58.1972 2.14746 61.4829 2.34165C65.1 2.55298 66.0696 1.41638 69.998 3.06273C72.3056 4.03083 74.4076 5.49584 75.3672 6.24119C76.9351 7.46061 85.3359 17.0574 85.3588 17.0845L86.4926 18.3982L84.8147 17.9612C84.7918 17.9555 79.1285 16.1293 74.6646 15.0641C78.2089 16.035 82.7227 17.9484 82.7398 17.9541L86.2055 19.1964L82.5299 19.0036C82.5199 19.0036 79.0642 18.8351 77.7705 18.8351C77.0893 18.8351 72.6269 19.9945 67.7689 21.4453C63.9862 22.5762 59.9893 23.4415 57.3732 24.5095C53.2778 26.1816 50.696 28.3477 48.7397 29.8369C49.5022 29.4043 49.7364 29.727 51.7127 28.5061C56.2237 26.5414 67.6575 22.7646 73.9364 20.6485C75.7142 20.1459 76.7952 19.8589 78.6944 19.7561C79.1885 19.7061 82.5942 19.9788 85.3059 20.0874C82.5828 20.3344 77.939 20.3501 76.1083 20.8913C74.8503 21.4467 73.2324 22.5105 71.4959 23.4129L71.3174 23.5071C71.9572 23.2673 72.5926 23.0416 73.2124 22.8317C75.0259 22.2206 76.1883 22.1706 77.4449 21.8908C78.9043 21.5652 79.694 21.5752 80.6864 21.4738C80.0281 22.0521 76.5581 25.192 75.6928 25.7432C73.0481 27.4281 70.335 29.8726 68.2915 31.5418C64.2532 34.8388 60.1849 42.942 60.055 43.2048L55.7211 51.1224C56.1723 50.5869 57.6474 48.5093 58.2357 47.8311C60.3377 45.4094 60.1735 46.7345 61.0603 47.5055C61.2602 47.6783 61.4415 47.8968 61.6472 48.1452C62.2141 48.8292 63.5364 49.2761 65.3413 49.7273C67.8046 50.3427 70.3079 52.0134 72.6612 53.6369C74.9902 55.2432 76.9922 56.9981 78.2003 58.0761C80.4893 60.1194 86.6882 62.0399 86.7068 62.0442L90.3724 63.0909L90.3767 63.088ZM49.9006 41.9254C54.2517 36.7707 59.5909 31.0135 62.3226 28.4719C60.8189 29.3457 59.7237 30.0111 59.3695 30.2667C58.8726 30.6251 56.9905 32.7798 54.7386 35.4514C50.5375 40.4347 45.114 47.1486 44.7842 47.5884C44.4943 47.9753 43.4604 49.8801 42.5222 51.8849C41.8854 53.2442 41.297 54.6392 41.0286 55.6145C40.3688 58.0062 37.4129 79.3973 37.2687 80.4553L37.0759 83.4639C37.9099 79.3102 39.9576 68.6253 41.3199 61.0604C42.1738 56.3113 42.8678 52.4546 43.0549 51.5193C43.3362 50.1143 46.2892 46.2076 49.9035 41.9268L49.9006 41.9254ZM69.4911 14.9527C70.1094 14.8642 73.6365 14.8856 74.6675 15.0626C66.5694 13.2749 66.765 13.9646 58.8997 17.0902C61.2459 16.8132 67.8317 15.1897 69.4911 14.9527Z" fill="#D3CECE"/>
<path d="M4.19088 77.7138C4.22515 77.651 16.9956 50.8125 20.5327 48.5179L21.4651 47.8925C22.3334 47.2999 23.0288 46.8259 23.6985 46.6645C25.3678 46.2619 26.366 47.5869 27.674 53.0115C28.4251 56.1228 29.0777 59.5826 29.6917 62.8396C30.3272 66.6277 32.5106 77.7709 31.2354 67.4645C31.0212 66.0366 30.7956 64.543 30.5814 62.9824C29.8859 57.902 32.1907 53.8953 34.1527 50.4884C34.8596 49.2576 35.5236 48.1067 35.9591 47.0401C36.5246 45.6564 36.9801 43.6703 37.7698 41.8811C39.4348 38.1158 41.5825 34.2148 42.0052 32.4014C42.3236 31.0321 43.0048 28.8803 44.2985 27.0183C45.7422 24.9422 47.6557 22.8874 49.2965 21.2968C49.8762 20.7342 50.843 20.2944 51.664 19.5391C55.2154 16.2692 59.5965 11.3087 59.8007 8.98558C59.9906 6.16123 57.6887 5.58151 57.2417 5.31735L54.867 4.65767C54.8727 4.55486 62.1697 5.73429 61.8398 9.20405C61.5956 11.977 56.1393 17.0003 52.4523 20.3958C51.6255 21.1568 50.8858 21.8379 50.3417 22.3663C48.7538 23.9055 46.9846 25.9859 45.5794 28.0078C44.3614 29.7584 43.4246 31.449 43.1404 32.6656C42.6935 34.5832 40.8157 38.8312 39.1307 42.645C38.3153 44.4899 37.5428 46.2376 37.0358 47.4784C36.5689 48.6193 35.8877 49.803 35.1595 51.0681C33.2902 54.3165 31.0926 58.1361 31.7352 62.8281C31.9222 64.1975 32.1607 65.7781 32.3892 67.2931C32.5648 68.4611 32.8647 71.5711 32.5848 75.5306C31.5281 73.5358 29.5289 68.2627 28.5479 63.0552C27.9353 59.8096 27.2856 56.3627 26.543 53.2856C25.4478 48.7507 24.8237 47.5912 23.9727 47.7968C23.5129 47.9068 22.896 48.3294 22.1234 48.8549C21.8407 49.0477 21.5323 49.2576 21.1667 49.4946C17.8938 51.6178 6.6313 73.4173 6.59845 73.4787L4.18945 77.7138H4.19088ZM32.3006 74.8224C32.2421 74.8866 32.1664 74.9166 32.2507 74.8709L32.3006 74.8224Z" fill="#D3CECE"/>
<path d="M80.4115 61.5759C80.3744 61.8343 81.3311 64.2731 81.2254 64.643C80.0274 68.8595 81.7381 67.2745 78.7593 71.4297C78.2724 72.1679 77.7055 72.5848 77.457 73.2074C68.0481 79.0817 63.1587 82.1259 75.9962 73.1831C77.2357 71.6981 77.4127 71.6724 77.9354 70.8785C78.7793 69.5991 79.5647 69.0551 79.8346 67.3531C80.133 65.4897 80.2944 64.9956 80.6685 63.4978L80.4115 61.5759Z" fill="#D3CECE"/>
<path d="M107.926 145.083C108.31 145.404 111.206 148.898 112.217 151.955C112.857 153.886 113.364 155.957 113.401 157.632L113.708 164.036V165.082L112.237 157.655C112.203 156.122 111.718 154.165 111.109 152.321C110.158 149.443 108.962 146.919 108.673 146.678L107.926 145.083Z" fill="#D3CECE"/>
<path d="M94.5322 51.4379C94.6051 51.2937 98.2078 47.9053 98.7419 47.3113C100.975 44.8297 106.816 38.3428 107.657 34.2305C108.695 29.1601 108.688 26.4771 108.686 26.4728L108.978 26.8127C108.979 26.8184 109.744 29.1016 108.654 34.4333C107.757 38.8154 101.782 45.4522 99.4973 47.9896C99.0175 48.5222 98.7119 48.862 98.7005 48.8834L94.5322 51.4379Z" fill="#D3CECE"/>
<path d="M114.328 49.7587C114.299 49.6445 114.002 45.7992 113.928 45.0339C113.573 41.3971 112.494 33.6422 110.692 31.3619C110.037 30.5323 109.567 29.7969 109.229 29.1687C106.854 68.1784 108.256 40.3661 108.378 26.6485L108.665 24.2282L109.332 26.6199V26.6299C109.333 26.6342 109.035 28.2734 111.191 31.0049C113.27 33.638 115.42 46.0205 114.327 49.7602L114.328 49.7587Z" fill="#D3CECE"/>
<path d="M108.363 23.9212C108.386 23.944 119.463 33.2453 121.921 39.2695C122.796 41.417 123.693 44.5427 124.441 46.7473C125.786 50.7154 126.788 54.1438 126.857 54.4593L127.518 57.6178C127.453 57.3136 124.798 51.0195 123.461 47.0772C122.712 44.8654 121.856 42.4865 121.001 40.3904C118.629 34.5732 110.582 26.8227 110.56 26.8012L108.363 23.9212Z" fill="#D3CECE"/>
<path d="M108.741 24.321C108.761 24.3281 117.438 26.9783 118.767 29.0287L119.838 30.8379C118.75 29.1587 109.609 24.9593 109.591 24.9521L108.743 24.3196L108.741 24.321Z" fill="#D3CECE"/>
<path d="M108.454 24.9507C108.466 24.965 114.744 31.0849 115.258 34.8145C115.737 38.2886 115.401 42.5836 115.401 42.5836L114.8 39.0525C114.8 39.0525 114.607 38.6027 114.106 34.9744C113.641 31.6032 109.511 26.9283 109.499 26.9155L108.454 24.9507Z" fill="#D3CECE"/>
<path d="M107.637 25.7989C109.352 21.9993 110.907 15.4267 115.174 13.8189C115.982 13.5148 116.87 13.3163 118.159 13.1221C119.642 12.8994 120.503 12.9408 121.895 12.8937C125.568 13.015 122.758 12.9194 120.32 13.5048C117.75 13.8361 115.473 14.2173 113.514 16.0507C111.975 17.8627 110.337 21.5909 108.751 24.548L107.637 25.8003V25.7989Z" fill="#D3CECE"/>
<path d="M70.7124 50.5098C70.6966 50.5112 65.6802 49.2318 64.8448 45.1295C64.4592 43.2376 64.3893 41.8454 64.7091 40.4546C65.0247 39.0782 65.7159 37.7374 66.8554 35.934C69.2373 32.1629 71.6562 29.8683 71.6562 29.8683L69.8327 33.3295C69.8327 33.3295 69.8756 33.3295 67.8407 36.5537C66.7711 38.2457 66.1257 39.4865 65.8444 40.7145C65.5659 41.9282 65.633 43.1747 65.9843 44.8968C66.6212 48.0238 73.0342 51.4122 73.0485 51.4122L70.7109 50.5083L70.7124 50.5098Z" fill="#D3CECE"/>
<path d="M119.113 90.5262C119.119 90.5147 121.759 83.7323 122.455 82.7256C122.935 82.0331 124.991 79.4815 126.312 78.0093C126.879 77.3797 131.458 70.4716 131.63 70.6415C130.61 72.0865 127.854 77.3682 126.786 78.5577C125.476 80.0155 123.649 82.6157 123.212 83.2468C122.6 84.1293 120.748 88.3258 120.744 88.3386L119.113 90.5262Z" fill="#D3CECE"/>
<path d="M68.5176 76.8485C68.519 76.8428 72.5202 69.6191 74.3137 66.0708L77.5424 61.2217L75.3704 66.7091C73.6712 70.0717 71.0551 74.1812 68.5176 76.8485Z" fill="#D3CECE"/>
<path d="M118.732 83.0455C118.737 83.0255 120.255 76.1588 121.525 73.1488C122.641 70.5087 122.809 66.1879 122.893 65.721L125.634 55.3403L124.698 66.3036C124.698 66.5249 124.603 67.2388 124.563 67.4502C124.561 67.4587 123.866 70.5915 122.596 73.6C121.381 76.4787 118.165 85.9455 118.161 85.9641L118.731 83.0441L118.732 83.0455Z" fill="#D3CECE"/>
<path d="M124.761 84.7804C124.762 84.7732 125.562 82.3458 126.986 80.7052C128.269 79.2259 128.639 79.0389 128.639 79.0374L132.65 72.3906C132.596 72.3649 129.373 78.5362 128.688 79.5686C128.359 80.0641 127.977 80.6252 127.557 81.2007C126.23 82.7299 124.481 86.1711 124.479 86.1783L124.761 84.7818V84.7804Z" fill="#D3CECE"/>
<path d="M115.249 104.255C115.253 104.254 117.841 102.132 118.285 100.683C118.526 99.8959 119.185 98.7065 119.833 97.9326C120.75 96.8403 121.436 96.4162 122.013 96.0135C122.242 95.8536 124.769 94.924 124.769 94.7099C127.211 88.5071 125.553 92.9293 125.553 94.3258C125.553 95.3881 124.682 95.668 123.741 95.9707C123.353 96.0949 122.946 96.2277 122.68 96.4133C122.166 96.7731 121.152 97.3871 120.298 98.4052C119.733 99.0777 119.25 100.07 119.06 100.687C118.448 102.687 116.276 103.483 116.27 103.484L115.249 104.257V104.255Z" fill="#D3CECE"/>
<path d="M100.726 84.0036C100.726 83.9993 100.155 78.8061 102.993 76.2045C104.316 74.9922 105.471 73.6843 106.215 72.2992C106.937 70.9542 107.269 69.5349 106.975 68.0613C106.363 65.0042 104.446 62.7396 104.441 62.7324L104.343 62.731L101.721 58.613L105.115 62.1856C105.121 62.1927 107.173 64.6187 107.827 67.8914C108.166 69.582 107.796 72.2793 106.98 73.7957C106.188 75.2707 104.968 75.5691 103.577 76.8428C100.99 79.2159 101.188 82.8456 101.188 82.8484C101.086 82.9584 100.944 83.0441 100.79 83.4996L100.726 84.0036Z" fill="#D3CECE"/>
<path d="M63.3142 88.9655L60.4055 80.6766C61.3908 81.6105 61.9405 82.6443 62.239 84.2363L62.2575 84.3334C62.3961 85.0859 62.9615 88.1559 63.3657 88.1816L63.3157 88.9655C62.3018 88.8998 61.6478 85.3458 61.4879 84.4748L61.4693 84.3763C60.9824 81.7704 57.8337 79.7328 57.8251 79.7271L55.5518 78.2564L65.5062 81.1992L63.3157 88.9655H63.3142Z" fill="#D3CECE"/>
<path d="M61.0504 96.5647L58.4772 88.9869C59.3668 89.8451 59.8581 90.7946 60.1151 92.2468L60.1308 92.3367C60.2508 93.0235 60.7363 95.825 61.1033 95.8522L61.0504 96.5647C60.1279 96.4961 59.5639 93.252 59.4268 92.4567L59.4111 92.3681C58.9927 89.9893 56.141 88.1045 56.1339 88.0988L54.0762 86.7366L63.1181 89.511L61.0504 96.5661V96.5647Z" fill="#D3CECE"/>
<path d="M59.2011 103.214L57.0163 96.6032C57.7845 97.3572 58.2044 98.1853 58.4171 99.4504L58.43 99.529C58.5285 100.127 58.9326 102.569 59.2511 102.595L59.1997 103.214C58.3971 103.149 57.9302 100.321 57.8159 99.6289L57.8031 99.5504C57.4561 97.4771 54.99 95.8165 54.9828 95.8136L53.2021 94.6142L61.0503 97.0916L59.1997 103.214H59.2011Z" fill="#D3CECE"/>
<path d="M57.7481 109.156L55.8689 103.513C56.5272 104.155 56.887 104.862 57.0698 105.943L57.0812 106.009C57.1669 106.52 57.5167 108.605 57.7895 108.626L57.7466 109.156C57.0612 109.101 56.6571 106.687 56.5571 106.096L56.5457 106.03C56.2444 104.261 54.1339 102.847 54.1281 102.843L52.6045 101.822L59.3131 103.923L57.7452 109.157L57.7481 109.156Z" fill="#D3CECE"/>
<path d="M56.7638 114.663L54.8489 110.15C55.4315 110.634 55.7742 111.19 55.997 112.067L56.0098 112.121C56.1141 112.536 56.5382 114.225 56.7638 114.225V114.663C56.1969 114.663 55.7057 112.707 55.5857 112.227L55.5729 112.174C55.2087 110.739 53.3823 109.717 53.3766 109.714L52.0586 108.976L57.7077 110.26L56.7652 114.665L56.7638 114.663Z" fill="#D3CECE"/>
<path d="M73.5824 110.695C71.7732 111.269 63.458 151.004 84.0052 163.642C85.5117 163.974 86.7012 164.275 87.7265 164.523C91.692 165.483 93.2371 165.657 101.414 163.738C112.443 160.094 112.399 158.493 112.399 158.489L112.655 159.776C112.655 159.781 113.317 160.721 101.686 164.563C71.0463 174.686 61.8787 136.063 73.581 110.695H73.5824Z" fill="#D3CECE"/>
<path d="M64.7545 96.7432C64.7446 96.7589 61.6358 103.286 59.7895 110.922C59.3225 112.851 58.8399 114.713 58.3758 116.499C56.9921 121.825 55.834 125.525 55.7397 129.409C55.6612 132.709 55.6326 133.968 55.2442 137.356C55.2442 137.356 54.7858 135.289 54.9158 129.849C55.0115 125.862 56.6593 121.139 58.0559 115.763C58.5186 113.978 59.0027 112.12 59.4667 110.198C61.3431 102.439 64.1448 97.667 64.1548 97.6499L64.7545 96.7432Z" fill="#D3CECE"/>
<path d="M87.4625 95.4352C87.4596 95.4253 83.7055 88.5943 77.7294 89.1483C72.6358 89.6223 70.9679 89.648 68.5518 85.8956C68.5546 85.8999 71.5548 88.8513 77.6508 88.2858C84.3538 87.6633 85.2834 90.4391 85.5733 90.7304C85.886 91.5171 86.0002 91.9898 86.3073 92.8922L87.4625 95.4352Z" fill="#D3CECE"/>
<path d="M77.7917 229.213C83.2423 231.855 80.1835 230.671 79.6338 230.106C78.3629 229.752 77.8145 229.86 77.4975 229.776L80.472 223.94C81.2688 224.152 81.226 227.086 81.216 227.804L81.2145 227.884C81.1888 230.036 83.3737 232.156 83.3794 232.162L84.9559 233.694L77.4961 229.776L77.7903 229.213H77.7917Z" fill="#D3CECE"/>
<path d="M81.3478 222.425C85.5104 225.185 83.5755 224.236 83.07 223.566C82.3688 223.101 81.2893 223.014 81.0137 222.898L84.4108 217.99C85.1048 218.279 84.7093 220.922 84.6122 221.57L84.6008 221.643C84.3152 223.583 86.0287 225.764 86.0344 225.769L87.2711 227.344L81.0137 222.897L81.3478 222.424V222.425Z" fill="#D3CECE"/>
<path d="M85.2146 216.914C88.5275 219.612 87.3266 219.147 86.4727 217.939C86.1185 217.679 85.1132 217.416 84.8848 217.294L88.2448 213.334C88.8203 213.644 88.2534 215.898 88.1134 216.451L88.0977 216.512C87.685 218.167 88.9845 220.202 88.9873 220.208L89.9241 221.677L84.8848 217.294L85.2146 216.914Z" fill="#D3CECE"/>
<path d="M89.6215 211.902L91.0724 213.258C90.3584 212.9 90.7711 213.374 90.347 212.58C89.9171 212.169 89.5059 212.376 89.3174 212.257L92.4118 209.028C92.8845 209.325 92.269 211.214 92.1177 211.676L92.1005 211.729C91.6521 213.116 92.6403 214.925 92.6432 214.93L93.3557 216.237L89.3174 212.207L89.6201 211.902H89.6215Z" fill="#D3CECE"/>
<path d="M74.7107 238.188C80.0928 239.536 79.5245 240.225 77.254 239.141C75.5875 239.147 74.9049 238.976 74.4951 238.953L76.6471 231.033C77.6781 231.088 78.3792 234.697 78.5506 235.582L78.5691 235.682C79.0904 238.328 82.3133 240.368 82.3219 240.374L84.6481 241.847L74.4951 238.953L74.7122 238.188H74.7107Z" fill="#D3CECE"/>
<path d="M119.999 151.581L121.878 150.636C121.508 151.038 120.953 151.33 120.068 152.146L119.341 146.335C119.694 146.009 120.583 148.068 120.802 148.574L120.826 148.631C121.481 150.139 122.924 150.314 122.926 150.314L123.967 150.443L120.068 152.148L120.001 151.582L119.999 151.581Z" fill="#D3CECE"/>
<path d="M118.89 145.638C121.96 144.927 120.759 145.046 118.89 146.189L118.624 140.746C118.967 140.535 119.649 142.602 119.816 143.109L119.835 143.166C120.336 144.681 121.646 145.177 121.648 145.18L122.594 145.54L118.915 146.164L118.89 145.638Z" fill="#D3CECE"/>
<path d="M118.256 139.997L119.658 139.517C119.312 139.801 119.099 139.844 118.383 140.438L117.052 135.891C117.296 135.687 118.28 137.381 118.52 137.796L118.547 137.843C119.269 139.084 120.46 139.405 120.463 139.407L121.323 139.64L118.381 140.439L118.254 139.998L118.256 139.997Z" fill="#D3CECE"/>
<path d="M116.109 135.126L117.333 134.791C117.277 135.072 116.869 135.02 116.233 135.499L114.942 131.669C115.152 131.512 116.063 132.959 116.286 133.314L116.312 133.354C116.982 134.415 118.038 134.735 118.041 134.735L118.805 134.966L116.233 135.499L116.11 135.127L116.109 135.126Z" fill="#D3CECE"/>
<path d="M121.022 158.031C125.273 156.696 123.011 157.946 122.918 157.721C122.735 157.267 121.197 158.513 120.975 158.64L121.093 152.633C121.653 152.315 122.517 154.458 122.728 154.984L122.751 155.044C123.388 156.613 125.391 156.851 125.397 156.853L126.844 157.025L121.007 158.61L121.02 158.029L121.022 158.031Z" fill="#D3CECE"/>
<path d="M117.561 173.463C120.854 174.973 118.67 174.356 118.566 174.229C117.972 173.957 117.628 173.886 117.461 173.852L118.458 169.838C118.877 169.924 119.11 171.844 119.166 172.315L119.173 172.368C119.346 173.777 120.631 175.018 120.634 175.023L121.562 175.919L117.462 173.852L117.562 173.465L117.561 173.463Z" fill="#D3CECE"/>
<path d="M119.322 169.618C122.318 170.982 120.435 170.26 120.271 170.051C119.745 169.926 119.315 170.086 119.158 170.052L120.001 166.374C120.392 166.458 120.686 168.189 120.758 168.613L120.766 168.66C120.985 169.929 122.224 171.067 122.227 171.07L123.121 171.893L119.244 169.965L119.321 169.618H119.322Z" fill="#D3CECE"/>
<path d="M120.391 165.756C123.543 167.182 121.454 166.475 121.381 166.384C121.005 166.211 120.48 166.13 120.321 166.094L121 162.593C121.398 162.681 121.735 164.38 121.818 164.797L121.828 164.845C122.078 166.091 123.356 167.225 123.36 167.228L124.284 168.047L120.321 166.095L120.391 165.757V165.756Z" fill="#D3CECE"/>
<path d="M121.307 162.271C125.404 162.573 123.454 162.628 122.698 162.374C122.307 162.588 121.527 162.627 121.31 162.648L121.24 158.76C121.786 158.708 122.694 160.35 122.917 160.752L122.941 160.798C123.611 162.003 125.598 162.716 125.604 162.717L127.039 163.232L121.309 162.65L121.307 162.273V162.271Z" fill="#D3CECE"/>
<path d="M114.877 179.952C118.912 181.262 116.376 180.703 116.142 180.361C115.491 180.23 114.975 180.471 114.767 180.457L115.862 175.231C116.386 175.268 116.743 177.647 116.83 178.231L116.84 178.297C117.104 180.041 118.745 181.388 118.749 181.392L119.933 182.365L114.768 180.456L114.878 179.95L114.877 179.952Z" fill="#D3CECE"/>
<path d="M119.317 92.3781C119.748 92.5081 119.804 92.7151 119.899 93.0792C119.935 93.7189 119.811 94.2886 119 94.4585C118.113 94.4314 118.083 93.9716 118.083 93.9688C119.505 94.6627 119.947 93.2248 119.317 92.3781Z" fill="#D3CECE"/>
<path d="M121.12 66.7319L120.92 66.4849C119.755 65.0442 113.987 57.9162 111.661 56.751C109.116 55.4759 99.0062 54.9362 98.9834 54.9362L101.131 54.6549C101.154 54.6549 109.293 54.7534 111.985 56.1014C114.45 57.3365 121.051 65.9909 122.235 67.4544L122.249 68.3769L121.12 66.7305V66.7319Z" fill="#D3CECE"/>
<path d="M123.65 87.0079C124.854 87.2863 130.93 84.8489 130.93 84.2978L134.044 81.512C134.044 81.8547 131.39 84.9018 130.958 85.1788C129.819 85.9113 127.487 86.8351 125.763 87.0521L123.648 87.0093L123.65 87.0079Z" fill="#D3CECE"/>
<path d="M118.074 92.8722C118.404 92.134 119.118 91.6057 119.452 91.4729L122.706 87.7104L120.182 95.5066L119.962 95.6166C118.477 96.3619 116.906 97.0545 116.92 96.7931C117.076 93.8974 116.924 95.4438 118.074 92.8722ZM117.962 95.0968L118.052 95.124C120.174 95.5837 120.077 93.5904 120.493 91.9669C118.921 92.5166 118.278 93.7403 117.962 95.0968Z" fill="#D3CECE"/>
<path d="M54.8803 127.732C61.1391 127.93 66.9682 128.649 72.3702 129.891C72.3159 130.851 72.3002 131.762 72.3402 132.572C72.4916 135.741 73.5754 141.947 75.963 147.6C68.4418 146.465 60.0125 146.789 55.4629 139.818C55.1559 138.29 54.9332 136.83 54.7989 135.466C54.5833 133.274 54.6533 130.574 54.8817 127.732H54.8803ZM83.9968 133.654C86.2216 134.609 88.3521 135.681 90.3899 136.867C90.1014 137.563 89.7701 138.232 89.743 138.734C89.6845 139.858 89.4617 141.543 89.4617 141.543L88.5878 143.879L86.7985 146.305C84.1967 149.833 86.1659 143.989 85.0678 145.715C83.9697 147.442 83.884 148.718 83.9925 144.297C84.0996 139.877 84.1096 141.519 84.8236 140.098C85.5376 138.679 84.4238 138.193 84.8393 136.301C85.0235 135.466 84.6408 134.571 83.9982 133.655L83.9968 133.654ZM113.258 164.271C115.144 169.881 116.125 176.125 116.198 182.827C116.125 183.01 116.193 183.09 116.201 183.169C116.343 184.851 92.2862 212.032 93.4372 208.84C93.8641 207.658 95.3735 204.226 96.3274 200.99C97.237 197.9 97.5526 195.117 97.584 195.076C98.7136 193.588 102.843 187.292 105.579 182.549C108.35 177.748 110.963 172.874 111.441 171.149C112.101 168.768 112.858 165.837 113.259 164.269L113.258 164.271Z" fill="#A19C9C"/>
<path d="M68.859 129.168C69.3788 129.262 69.8943 129.362 70.4055 129.466C70.2956 135.136 70.7954 141.384 72.469 147.15C71.7778 147.07 71.0867 146.99 70.3955 146.906C68.8747 141.46 68.365 135.333 68.859 129.169V129.168Z" fill="#A19C9C"/>
<path d="M55.0919 127.738L55.8401 127.765C55.7859 128.312 55.7516 128.858 55.7387 129.407C55.6602 132.707 55.6316 133.967 55.2432 137.355C55.2432 137.355 54.7849 135.287 54.9148 129.847C54.9305 129.166 54.9933 128.462 55.0904 127.738H55.0919Z" fill="#A19C9C"/>
<path d="M115.764 175.696C115.939 177.22 116.062 178.774 116.132 180.36C115.485 180.233 114.974 180.471 114.766 180.457L115.762 175.696H115.764ZM116.134 180.371L116.156 180.97L114.767 180.456L114.877 179.95C115.4 180.12 115.812 180.259 116.134 180.37V180.371Z" fill="#D3CECE"/>
</svg>
