<svg width="296" height="401" viewBox="0 0 296 401" fill="none" xmlns="http://www.w3.org/2000/svg">
<g clip-path="url(#clip0_68_415)">
<path d="M51.7544 292.943V227.205C51.7544 217.43 51.3467 209.22 50.5658 202.543C49.7504 195.902 44.341 185.024 42.2681 177.906L63.5733 181.904H72.8446C101.135 181.904 123.55 189.056 140.158 203.396C156.765 217.735 165.051 237.116 165.051 261.505C165.051 285.074 157.341 303.741 141.922 317.535C126.505 331.33 105.618 338.246 79.2986 338.246H63.6767H46.4585C48.428 331.332 49.787 324.554 50.5678 317.877C51.3487 311.235 51.7564 302.923 51.7564 292.943H51.7544ZM75.9053 320.133C75.9195 323.53 47.2719 336.987 47.9027 336.794C57.2125 333.938 111.524 314.885 122.26 305.34C134.069 294.841 139.987 281.055 139.987 263.92C139.987 244.437 134.383 228.767 123.177 216.881C111.97 204.995 88.643 214.633 78.6861 199.067L69.4148 184.575L75.3921 202.218L75.9053 320.131V320.133Z" fill="url(#paint0_linear_68_415)"/>
<path d="M182.843 291.273V225.614C182.843 215.85 182.435 207.652 181.657 200.983C180.843 194.349 175.438 183.484 173.369 176.374L194.648 180.366H203.907C232.163 180.366 254.549 187.51 271.137 201.833C287.724 216.157 296 235.513 296 259.872C296 283.414 288.3 302.057 272.901 315.835C257.503 329.613 236.642 336.519 210.353 336.519H194.751H177.553C179.521 329.613 180.878 322.843 181.659 316.176C182.439 309.543 182.845 301.241 182.845 291.273H182.843ZM206.964 318.43C206.978 321.822 178.365 335.264 178.995 335.071C188.295 332.219 242.54 313.188 253.261 303.655C265.056 293.169 270.966 279.399 270.966 262.286C270.966 242.826 265.368 227.177 254.176 215.304C242.984 203.432 219.685 213.059 209.74 197.513L200.481 183.039L206.45 200.662L206.962 318.43H206.964Z" fill="url(#paint1_linear_68_415)"/>
<path fill-rule="evenodd" clip-rule="evenodd" d="M168.838 103.397C168.838 103.397 168.917 92.2426 169.071 91.5468C169.225 90.8511 170.229 87.0979 172.162 81.1293C174.093 75.1607 177.571 86.5547 177.571 86.5547C177.571 86.5547 181.048 93.8395 181.202 95.5462C181.356 97.251 182.671 105.156 183.831 109.341C184.989 113.525 186.303 131.738 186.845 124.765C187.384 117.789 183.985 106.395 184.449 100.429C184.914 94.462 182.052 77.7239 181.588 71.9872C181.125 66.2505 173.939 50.674 174.632 50.9853C175.328 51.2945 180.427 55.0152 183.518 59.8201C186.61 64.6251 185.295 64.5478 185.064 60.3613C184.833 56.1768 176.101 47.0306 173.783 44.6302C171.464 42.2277 164.047 28.897 163.893 27.117C163.739 25.335 165.826 23.7849 169.223 21.9235C172.622 20.0641 174.17 19.7529 176.874 20.2961C179.58 20.8392 179.888 22.1574 181.123 22.7758C182.358 23.3963 183.056 22.6212 180.273 19.8302C177.49 17.0392 172.239 17.1165 169.069 17.3504C165.901 17.5823 162.347 18.9778 161.497 20.2167C160.647 21.4556 153.615 32.3858 153.615 32.3858C153.615 32.3858 151.222 28.5878 149.597 23.6282C147.975 18.6686 149.906 20.528 148.979 21.7689C148.052 23.0078 147.898 25.0237 148.283 27.2716C148.67 29.5195 149.133 29.6741 150.293 33.6267C151.451 37.5793 149.287 36.5724 149.21 38.7409C149.133 40.9094 140.79 53.459 134.144 61.9907C127.495 70.5225 107.38 77.671 105.954 77.9171C104.531 78.1633 168.838 103.397 168.838 103.397Z" fill="url(#paint2_linear_68_415)"/>
<path fill-rule="evenodd" clip-rule="evenodd" d="M149.066 110.433C149.066 110.433 152.281 106.222 152.11 104.202C151.94 102.182 155.497 101.588 156.98 102.262C157.491 102.493 158.641 103.486 159.944 104.754C162.414 107.154 165.438 110.537 165.716 111.556C166.14 113.112 166.059 114.697 164.836 119.345C163.611 123.994 162.219 119.966 162.27 118.041C162.321 116.117 161.012 115.314 160.536 120.232C160.059 125.153 162.978 125.322 162.217 127.344C161.457 129.366 161.205 131.722 160.783 134.332C160.361 136.942 158.923 139.131 157.992 140.396C157.061 141.66 157.4 141.576 157.572 143.596C157.743 145.616 156.305 145.87 158.084 147.636C159.864 149.402 161.473 148.306 161.39 151.001C161.307 153.694 160.548 156.894 161.818 155.462C163.087 154.03 165.035 149.567 167.318 147.29C169.604 145.016 174.432 140.97 175.616 140.211C176.803 139.452 176.715 138.864 178.241 137.095C179.764 135.325 177.561 134.822 181.036 134.904C184.51 134.985 184.764 134.733 184.764 134.733L182.729 133.388L186.202 130.945L181.963 130.021L182.89 124.128C182.89 124.128 189.78 118.725 190.676 115.281C191.575 111.839 191.605 111.574 191.605 111.574C191.605 111.574 187.374 117.474 185.173 119.075C182.971 120.676 182.882 115.625 182.967 114.026C183.05 112.427 186.18 107.793 187.364 105.435C188.549 103.077 191.842 91.4676 190.396 86.4063C188.952 81.345 188.062 80.4418 186.429 78.2895C186.293 78.1105 186.186 77.962 186.104 77.844C185.766 77.3558 185.839 77.3578 186.104 77.844C186.557 78.67 187.563 80.8975 188.023 84.4717C188.818 90.6539 185.498 102.489 184.567 103.584C183.636 104.678 182.028 107.29 182.028 107.29C182.028 107.29 178.289 96.8544 177.356 95.6766C176.423 94.5007 178.273 78.7859 178.273 78.7859L174.728 92.2285C174.728 92.2285 171.635 86.9251 169.769 86.0015C167.903 85.0779 167.308 81.9187 165.189 81.7519C163.069 81.5851 163.282 81.5424 161.16 79.6078C159.041 77.6731 158.869 75.0632 158.023 76.9164C157.177 78.7696 153.104 74.5627 151.408 73.9748C149.713 73.3869 149.544 73.7226 149.376 75.2402C149.208 76.7557 145.78 72.7929 144.001 73.3422C142.222 73.8914 144.502 74.5688 144.843 76.0844C145.184 77.5999 138.314 73.9016 137.468 74.4915C136.622 75.0815 137.172 75.0815 137.342 76.0905C137.513 77.1015 132.002 74.7479 131.409 76.0966C130.817 77.4453 133.699 79.0422 134.209 79.7156C134.72 80.3889 128.444 79.384 126.836 79.1338C125.227 78.8836 125.122 79.5345 125.631 81.5546C126.142 83.5746 109.293 81.0867 103.857 70.6528C98.4233 60.217 94.7764 57.6945 100.448 49.6062C106.119 41.5178 119.163 31.739 122.043 31.0637C124.923 30.3883 130.347 28.1078 132.211 28.5289C134.077 28.948 137.21 26.9239 137.294 26.0837C137.377 25.2415 143.524 18.7034 142.768 13.8821C142.579 12.6859 142.492 11.9394 142.456 11.5467C142.409 11.0605 142.441 11.1195 142.456 11.5467C142.476 12.1611 142.458 13.5383 142.115 15.1332C141.342 18.7298 135.849 22.0436 135.849 22.0436C135.849 22.0436 134.407 20.4447 131.02 22.7211C127.631 24.9974 125.343 21.3764 118.217 14.9826C111.092 8.59093 103.37 -0.0751181 95.318 0.0164247C87.2657 0.107967 71.5829 -0.634546 65.9077 2.65286C60.2305 5.94229 55.1334 13.4997 56.1679 12.0919C57.2043 10.6862 61.2467 5.26691 67.7738 5.76531C74.3028 6.26371 82.7791 6.84755 84.3064 10.6333C85.8357 14.4212 73.9763 20.6644 69.1449 21.9318C64.3155 23.1991 55.673 28.6795 51.6103 34.9146C47.5476 41.1496 40.4323 48.65 38.7387 49.9988C37.0451 51.3475 28.8366 66.8487 28.8366 66.8487C28.8366 66.8487 17.3159 77.2175 15.1172 81.6827C12.9165 86.148 6.40365 100.805 4.37738 108.639C2.35112 116.471 -0.00576034 136.936 -0.00170376 140.895C0.00235283 144.853 4.69177 174.66 4.69177 174.66C4.69177 174.66 -0.259297 136.348 5.65927 120.509C11.5799 104.672 12.6772 100.209 14.7115 100.29C16.7459 100.374 26.2363 95.7315 26.2343 93.9637C26.2323 92.1959 23.9403 88.8292 27.1632 90.1738C30.3862 91.5185 35.5543 90.3345 34.8789 92.8611C34.2035 95.3877 34.889 102.882 37.9436 105.573C40.9982 108.265 42.3633 118.2 44.061 120.81C45.7586 123.418 45.0041 132.094 45.5153 134.704C46.0183 137.278 51.4095 171.863 51.8963 176.853C51.9024 176.928 51.9084 176.995 51.9145 177.056C51.9531 177.524 51.9429 177.416 51.8963 176.853C51.5231 172.408 48.8477 139.523 49.6733 136.383C50.6022 132.845 56.0117 115.997 56.0117 115.997C56.0117 115.997 54.9103 115.155 55.5005 112.459C56.0908 109.766 59.7356 107.992 60.9202 106.055C62.1047 104.117 65.4108 104.284 69.0577 104.448C72.7025 104.613 76.605 105.453 80.335 105.954C84.065 106.456 88.4705 104.513 88.8092 103.757C89.1479 102.998 95.0847 107.288 94.9164 108.72C94.748 110.153 82.5763 150.588 81.988 154.63C81.3978 158.672 76.6597 181.092 77.83 192.997C79.8502 213.563 95.8393 249.682 122.688 250.384C142.969 250.915 145.851 247.109 161.27 232.443C161.27 232.443 159.635 238.951 158.286 243.837C157.607 246.295 153.895 253.24 149.96 260.079C146.074 266.837 141.971 273.491 140.362 275.615C120.434 301.914 91.732 335.539 98.4213 369.8C99.8675 377.209 102.762 388.412 108.956 393.964C122.343 405.964 131.014 401.785 141.253 387.702C142.131 386.496 134.817 392.338 129.481 396.049C105.62 412.64 87.3488 336.81 138.109 292.449C141.581 289.414 164.789 262.943 164.872 260.923C164.955 258.901 180.961 234.547 176.703 215.683C172.446 196.819 167.606 188.147 162.856 186.467C158.106 184.786 157.11 186.849 154.637 192.875C152.165 198.9 149.488 214.609 142.624 221.1C135.762 227.592 125.507 231.31 116.171 222.895C106.837 214.481 103.088 196.121 102.744 188.877C102.397 181.633 105.098 168.661 105.098 168.661V168.248L112.102 172.772C112.102 172.772 110.92 177.87 110.922 179.387C110.924 180.903 112.291 182.469 114.921 185.415C117.552 188.361 121.09 191.497 120.497 194.193C119.907 196.89 121.491 197.58 120.475 199.602C119.461 201.626 119.447 199.285 119.294 205.585C119.142 211.883 119.262 210.062 120.822 207.605C122.382 205.145 119.585 213.472 123.28 208.445L125.822 204.989L127.063 201.661C127.063 201.661 127.379 199.26 127.462 197.659C127.546 196.058 129.795 193.277 128.692 191.51C127.588 189.742 129.028 189.235 129.028 189.235L129.024 185.529C129.024 185.529 133.349 186.282 133.945 188.22C134.541 190.157 135.811 187.712 134.535 184.935C133.259 182.158 137.417 185.944 137.417 185.944C137.417 185.944 137.415 183.248 136.141 181.564C134.868 179.88 134.699 180.724 132.916 179.461C131.134 178.199 129.604 172.808 127.312 171.968C125.022 171.128 127.053 165.314 128.408 164.134C129.762 162.954 132.815 163.371 131.03 159.331C129.247 155.291 126.87 154.534 129.582 151.92C132.294 149.306 133.687 147.616 131.803 144.056C129.921 140.496 129.994 139.873 126.432 138.276C122.87 136.68 122.016 131.205 121.422 129.773C120.828 128.341 123.454 124.97 125.146 122.694C126.84 120.42 132.689 120.835 132.689 120.835C132.689 120.835 136.766 125.969 139.395 127.989C142.026 130.007 142.77 132.806 142.263 133.903C141.756 134.999 140.873 134.057 140.677 138.433C140.506 142.245 140.667 144.369 140.916 144.027C141.66 143.01 142.46 142.062 144.492 138.683L145.516 145.378C145.516 145.378 148.273 144.239 148.567 142.723C148.861 141.206 150.433 143.732 150.433 143.732C150.433 143.732 151.849 138.108 151.254 137.097C150.66 136.086 150.469 136.149 148.897 133.707C147.325 131.266 142.952 123.101 142.78 121.079C142.61 119.057 143.425 116.98 145.461 118.745C147.498 120.513 149.056 123.599 149.056 123.599L152.619 126.669L150.755 127.894L154.571 128.311L157.534 123.843L155.577 116.349C155.577 116.349 151.889 115.846 150.36 113.826C148.833 111.806 149.05 110.437 149.05 110.437L149.066 110.433Z" fill="url(#paint3_linear_68_415)"/>
<path d="M95.3362 141.558C95.3443 141.588 98.3827 152.242 102.389 154.433C104.074 155.354 107.299 154.772 110.443 153.8C110.962 153.639 111.479 153.468 111.986 153.291C115.455 151.603 118.836 150.447 118.856 150.441L129.88 146.757L119.485 151.969C119.467 151.977 116.138 153.611 112.238 154.911C109.116 156.396 106.165 158.206 106.216 159.724C106.275 161.467 105.774 162.324 105.431 162.909C105.279 163.168 105.234 163.249 106.948 164.441C108.238 165.338 110.546 166.4 113.051 167.552C117.99 169.822 123.674 172.436 124.73 175.325C125.596 177.697 125.694 179.422 125.775 180.876C125.828 181.843 125.876 182.679 126.164 183.45C126.862 185.321 128.996 189.017 129.006 189.024L127.815 187.587C127.803 187.577 125.483 186.355 124.615 184.029C124.237 183.02 124.183 182.068 124.122 180.97C124.047 179.631 123.957 178.047 123.173 175.898C122.351 173.65 117.007 171.195 112.362 169.059C109.784 167.873 107.411 166.783 106.007 165.804C103.028 163.731 103.257 163.341 104.003 162.069C104.249 161.65 104.606 161.042 104.563 159.773C104.522 158.607 105.504 157.405 106.968 156.268C104.833 156.611 102.888 156.595 101.594 155.887C96.9751 153.361 92.4074 136.224 92.3972 136.191L95.3322 141.556L95.3362 141.558Z" fill="url(#paint4_linear_68_415)"/>
<path d="M122.327 156.455C121.493 156.813 118.183 157.907 117.877 159.207C117.702 159.941 117.526 161.424 118.201 162.883C118.631 163.815 119.42 164.751 120.796 165.495C124.743 168.239 126.854 172.338 126.951 171.757L128.41 172.723C128.714 173.118 123.919 169.199 120.011 166.96C118.274 166.018 117.262 164.801 116.698 163.579C115.818 161.673 116.039 159.767 116.262 158.825C116.64 157.228 124.025 155.084 126.962 154.229L127.984 153.924L122.327 156.453V156.455Z" fill="url(#paint5_linear_68_415)"/>
<path d="M89.3142 131.042C89.5779 130.162 92.7522 122.543 97.756 117.527C100.65 114.624 103.987 111.896 107.348 110.36C116.319 106.259 125.116 105.044 125.122 105.044C117.449 106.727 113.21 108.686 107.476 111.306C104.328 112.744 101.151 115.352 98.3705 118.141C93.5513 122.974 90.5454 128.797 90.3121 129.576L89.3142 131.042Z" fill="url(#paint6_linear_68_415)"/>
<path d="M128.627 100.479C128.643 100.496 137.101 107.274 137.397 109.794C137.679 112.211 134.551 122.291 134.541 122.313L133.257 120.749C133.265 120.729 135.989 112.026 135.752 109.984C135.525 108.047 130.641 103.148 130.627 103.136L128.627 100.481V100.479Z" fill="url(#paint7_linear_68_415)"/>
<path d="M128.369 89.8848C128.343 89.8787 113.141 87.5312 109.593 84.3556C107.91 82.8503 105.084 80.4376 101.837 78.1897C98.6263 75.9683 95.0058 73.9116 91.7058 73.0837C88.6593 72.3208 87.3308 70.7158 86.3896 69.5786C86.1422 69.2796 85.9231 69.0151 85.7304 68.8483C85.2802 68.4557 84.6635 68.7771 82.5176 71.2569C77.3211 77.2621 76.3009 78.9343 76.1975 79.1153L72.6195 84.2682L74.806 78.4603L83.0673 60.8902C83.0835 60.8556 89.3347 48.1006 95.4135 43.1248C98.3769 40.6979 102.896 37.8092 106.691 35.3843C109.263 33.7386 111.488 32.3675 112.559 31.6941C112.192 31.8121 111.695 31.9586 111.076 32.0969C109.34 32.4875 107.003 33.1425 104.478 33.9969C99.2916 35.7505 93.3244 38.334 90.1886 41.1352C86.6026 44.3372 79.4103 53.8699 72.9055 61.5981C67.9159 67.526 63.7397 72.7317 63.3969 74.4527C63.0805 76.0395 61.3767 80.6695 60.1922 87.2728C59.3626 91.9008 53.085 120.995 53.083 121.449C53.1459 123.127 50.9553 130.863 50.9553 132.527L51.3711 126.665C51.3711 126.652 51.5334 124.313 51.5456 121.441C51.1277 110.124 53.5373 88.3123 56.2836 78.3219C56.6893 76.8512 57.4418 74.6602 58.3789 72.6524C59.752 69.7108 61.4984 67.0602 61.9507 66.4539C62.4274 65.8172 70.6054 56.6182 76.5727 49.5226C79.8362 45.6391 82.6008 42.4819 83.4283 41.8818C84.7345 40.9359 92.7767 36.2469 99.89 32.4956C88.2455 34.8798 77.3475 39.7397 66.5955 44.6952C68.6603 41.0986 78.5016 34.8412 81.3818 33.6613C85.1808 32.1051 90.4341 30.5041 95.8212 28.8889C102.845 26.7854 109.38 25.2943 110.465 25.2943L117.761 26.2443C114.262 24.5986 104.295 21.6692 100.557 22.2896C96.4155 22.8816 87.8703 24.3321 87.8399 24.3361L81.0147 25.9269C95.5271 14.1708 104.372 20.6032 120.716 24.7755C117.392 20.9958 107.756 11.4001 106.109 10.1165C104.807 9.10138 101.955 7.10982 98.8292 5.79364C95.6103 4.44084 90.9208 4.31471 87.3308 4.10111C82.8219 3.83462 77.5341 3.38098 74.95 3.93634C70.6845 5.17115 66.3318 4.19876 66.2101 4.19469L66.0073 4.2191C66.202 4.1418 71.3052 4.78667 75.4308 3.18569C78.7206 2.79917 82.6616 3.06363 87.3287 3.34029C92.4664 3.64137 93.8436 2.02208 99.4235 4.36761C102.701 5.74685 105.687 7.83402 107.05 8.89592C109.277 10.6332 121.209 24.3056 121.242 24.3443L122.852 26.2158L120.469 25.5933C120.437 25.5852 112.392 22.9833 106.052 21.4658C111.086 22.8491 117.498 25.575 117.522 25.5831L122.445 27.353L117.224 27.0783C117.21 27.0783 112.301 26.8383 110.463 26.8383C109.496 26.8383 103.158 28.4901 96.2573 30.557C90.8843 32.1681 85.2071 33.4009 81.4913 34.9225C75.6741 37.3047 72.007 40.3907 69.2282 42.5125C70.3113 41.8961 70.644 42.3558 73.4511 40.6165C79.8585 37.8173 96.0991 32.4366 105.017 29.4218C107.543 28.7058 109.078 28.2969 111.776 28.1504C112.478 28.0792 117.315 28.4678 121.167 28.6224C117.299 28.9743 110.703 28.9967 108.103 29.7677C106.316 30.559 104.018 32.0745 101.551 33.3602L101.298 33.4945C102.206 33.1527 103.109 32.8313 103.989 32.5323C106.565 31.6616 108.216 31.5904 110.001 31.1917C112.074 30.7278 113.196 30.7421 114.605 30.5977C113.67 31.4215 108.741 35.8949 107.512 36.6802C103.756 39.0806 99.9021 42.5633 96.9996 44.9414C91.2636 49.6385 85.485 61.1831 85.3004 61.5574L79.1446 72.8375C79.7855 72.0747 81.8807 69.1148 82.7164 68.1485C85.702 64.6983 85.4688 66.5862 86.7284 67.6847C87.0123 67.9308 87.2699 68.2421 87.562 68.596C88.3672 69.5705 90.2454 70.2072 92.8092 70.85C96.308 71.7268 99.8636 74.1069 103.206 76.4199C106.514 78.7085 109.358 81.2086 111.074 82.7445C114.325 85.6555 123.13 88.3916 123.157 88.3978L128.363 89.8889L128.369 89.8848ZM70.8772 59.7347C77.0574 52.3909 84.6412 44.1887 88.5214 40.5677C86.3856 41.8127 84.8299 42.7606 84.3269 43.1248C83.621 43.6354 80.9477 46.7051 77.7491 50.5113C71.7819 57.6109 64.0784 67.1761 63.6098 67.8027C63.1981 68.354 61.7296 71.0677 60.397 73.9238C59.4924 75.8605 58.6568 77.848 58.2754 79.2374C57.3384 82.6448 53.1398 113.12 52.9349 114.628L52.6611 118.914C53.8456 112.996 56.7542 97.7738 58.6892 86.9961C59.9021 80.2301 60.8879 74.7355 61.1536 73.403C61.5532 71.4013 65.7477 65.8355 70.8813 59.7367L70.8772 59.7347ZM98.7034 21.3071C99.5817 21.181 104.592 21.2115 106.056 21.4637C94.5535 18.9168 94.8314 19.8994 83.6595 24.3524C86.992 23.9578 96.3465 21.6448 98.7034 21.3071Z" fill="url(#paint8_linear_68_415)"/>
<path d="M5.95149 110.722C6.00017 110.632 24.1392 72.3961 29.1633 69.127L30.4878 68.236C31.721 67.3917 32.7088 66.7164 33.66 66.4865C36.0311 65.9128 37.4489 67.8006 39.3068 75.5289C40.3737 79.9616 41.3006 84.8906 42.1728 89.5308C43.0754 94.9278 46.1766 110.803 44.3654 96.1199C44.0611 94.0856 43.7406 91.9577 43.4364 89.7343C42.4486 82.4963 45.7223 76.7881 48.5092 71.9343C49.5132 70.1807 50.4563 68.5411 51.075 67.0215C51.8782 65.0503 52.5252 62.2206 53.6468 59.6716C56.0118 54.3072 59.0624 48.7496 59.6628 46.166C60.1151 44.2151 61.0826 41.1495 62.9202 38.4968C64.9708 35.5389 67.6887 32.6116 70.0192 30.3454C70.8427 29.5439 72.2159 28.9173 73.3821 27.8412C78.4265 23.1827 84.6493 16.1156 84.9394 12.8058C85.2091 8.782 81.9395 7.95608 81.3047 7.57974L77.9316 6.6399C77.9397 6.49343 88.3043 8.17375 87.8358 13.1171C87.4889 17.0676 79.7388 24.2242 74.5018 29.0618C73.3274 30.146 72.2767 31.1164 71.5039 31.8691C69.2485 34.062 66.7354 37.026 64.7396 39.9065C63.0094 42.4006 61.6789 44.8092 61.2753 46.5424C60.6404 49.2744 57.9732 55.3264 55.5798 60.76C54.4216 63.3883 53.3243 65.8782 52.6043 67.646C51.941 69.2714 50.9735 70.9578 49.9391 72.7602C47.2841 77.3882 44.1625 82.8299 45.0753 89.5146C45.341 91.4654 45.6797 93.7174 46.0042 95.8758C46.2537 97.5398 46.6796 101.97 46.2821 107.612C44.7812 104.77 41.9415 97.2571 40.5481 89.838C39.678 85.2141 38.7551 80.3033 37.7004 75.9195C36.1447 69.4586 35.2583 67.8067 34.0495 68.0997C33.3963 68.2563 32.5201 68.8585 31.4228 69.6071C31.0212 69.8817 30.5831 70.1807 30.0639 70.5184C25.415 73.5434 9.41785 104.601 9.3712 104.688L5.94946 110.722H5.95149ZM45.8785 106.603C45.7953 106.694 45.6878 106.737 45.8075 106.672L45.8785 106.603Z" fill="url(#paint9_linear_68_415)"/>
<path d="M114.214 87.7305C114.161 88.0987 115.52 91.5733 115.37 92.1001C113.668 98.1074 116.098 95.8493 111.867 101.769C111.175 102.821 110.37 103.415 110.017 104.302C96.6526 112.671 89.7077 117.008 107.942 104.267C109.703 102.152 109.954 102.115 110.696 100.984C111.895 99.1611 113.011 98.3861 113.394 95.9612C113.818 93.3065 114.047 92.6026 114.579 90.4687L114.214 87.7305Z" fill="url(#paint10_linear_68_415)"/>
<path d="M153.295 206.702C153.841 207.159 157.954 212.137 159.39 216.493C160.299 219.243 161.019 222.195 161.071 224.581L161.507 233.705V235.194L159.418 224.613C159.37 222.429 158.682 219.642 157.816 217.013C156.465 212.914 154.767 209.318 154.356 208.974L153.295 206.702Z" fill="url(#paint11_linear_68_415)"/>
<path d="M134.271 73.2871C134.375 73.0816 139.492 68.2543 140.251 67.408C143.423 63.8724 151.719 54.6307 152.914 48.7719C154.388 41.5482 154.378 37.7258 154.376 37.7197L154.79 38.2038C154.792 38.212 155.879 41.4648 154.329 49.0608C153.056 55.304 144.569 64.7594 141.324 68.3743C140.642 69.1331 140.208 69.6172 140.192 69.6478L134.271 73.2871Z" fill="url(#paint12_linear_68_415)"/>
<path d="M162.39 70.8948C162.349 70.732 161.927 65.2537 161.822 64.1633C161.317 58.982 159.785 47.9338 157.226 44.6851C156.295 43.5032 155.627 42.4555 155.147 41.5604C151.774 97.137 153.765 57.5133 153.938 37.9699L154.345 34.5218L155.293 37.9292V37.9435C155.295 37.9496 154.871 40.2849 157.934 44.1765C160.887 47.9277 163.941 65.569 162.388 70.8968L162.39 70.8948Z" fill="url(#paint13_linear_68_415)"/>
<path d="M153.917 34.0844C153.95 34.117 169.683 47.3683 173.174 55.9509C174.417 59.0105 175.691 63.4635 176.754 66.6045C178.665 72.2577 180.089 77.1421 180.186 77.5916L181.125 82.0915C181.032 81.6582 177.261 72.691 175.363 67.0744C174.298 63.9233 173.083 60.5342 171.868 57.5478C168.499 49.2602 157.069 38.2181 157.037 38.1876L153.917 34.0844Z" fill="url(#paint14_linear_68_415)"/>
<path d="M154.453 34.654C154.482 34.6642 166.805 38.4398 168.694 41.361L170.215 43.9385C168.669 41.5462 155.686 35.5633 155.66 35.5532L154.455 34.652L154.453 34.654Z" fill="url(#paint15_linear_68_415)"/>
<path d="M154.045 35.5511C154.062 35.5715 162.98 44.2904 163.71 49.604C164.39 54.5534 163.913 60.6725 163.913 60.6725L163.059 55.6417C163.059 55.6417 162.785 55.0009 162.073 49.8318C161.412 45.0289 155.546 38.3686 155.53 38.3503L154.045 35.5511Z" fill="url(#paint16_linear_68_415)"/>
<path d="M152.885 36.7595C155.321 31.3463 157.53 21.9825 163.591 19.6919C164.739 19.2586 166 18.9758 167.832 18.6991C169.937 18.3818 171.16 18.4408 173.138 18.3737C178.355 18.5466 174.363 18.4103 170.901 19.2443C167.25 19.7163 164.017 20.2594 161.234 22.8715C159.047 25.453 156.721 30.7645 154.467 34.9775L152.885 36.7615V36.7595Z" fill="url(#paint17_linear_68_415)"/>
<path d="M100.438 71.9648C100.415 71.9669 93.2899 70.1441 92.1033 64.2996C91.5557 61.6042 91.4563 59.6208 91.9106 57.6394C92.3589 55.6783 93.3406 53.7682 94.9592 51.1989C98.3424 45.8263 101.778 42.5572 101.778 42.5572L99.1881 47.4883C99.1881 47.4883 99.249 47.4883 96.3587 52.0817C94.8395 54.4924 93.9227 56.2602 93.5231 58.0096C93.1276 59.7388 93.2229 61.5147 93.7219 63.9681C94.6265 68.4231 103.736 73.2505 103.756 73.2505L100.436 71.9628L100.438 71.9648Z" fill="url(#paint18_linear_68_415)"/>
<path d="M169.187 128.976C169.195 128.959 172.945 119.296 173.933 117.862C174.614 116.876 177.535 113.24 179.411 111.143C180.216 110.246 186.721 100.404 186.965 100.646C185.516 102.705 181.602 110.23 180.085 111.924C178.225 114.001 175.628 117.706 175.008 118.605C174.14 119.862 171.509 125.841 171.503 125.859L169.187 128.976Z" fill="url(#paint19_linear_68_415)"/>
<path d="M97.3201 109.489C97.3221 109.481 103.005 99.1896 105.553 94.1344L110.139 87.226L107.054 95.0438C104.64 99.8345 100.924 105.689 97.3201 109.489Z" fill="url(#paint20_linear_68_415)"/>
<path d="M168.645 118.318C168.651 118.29 170.807 108.507 172.612 104.218C174.196 100.457 174.436 94.3012 174.555 93.636L178.448 78.8468L177.119 94.466C177.119 94.7813 176.983 95.7985 176.927 96.0996C176.925 96.1118 175.937 100.575 174.134 104.861C172.408 108.962 167.84 122.45 167.834 122.476L168.643 118.316L168.645 118.318Z" fill="url(#paint21_linear_68_415)"/>
<path d="M177.208 120.79C177.21 120.779 178.346 117.321 180.368 114.984C182.192 112.876 182.717 112.61 182.717 112.608L188.415 103.138C188.338 103.102 183.76 111.894 182.786 113.365C182.32 114.07 181.776 114.87 181.18 115.69C179.296 117.868 176.811 122.771 176.809 122.781L177.208 120.792V120.79Z" fill="url(#paint22_linear_68_415)"/>
<path d="M163.698 148.535C163.704 148.533 167.379 145.51 168.01 143.445C168.353 142.325 169.288 140.63 170.209 139.527C171.511 137.971 172.487 137.367 173.306 136.793C173.631 136.566 177.221 135.241 177.221 134.936C180.689 126.099 178.334 132.399 178.334 134.389C178.334 135.902 177.097 136.301 175.76 136.732C175.209 136.909 174.631 137.099 174.253 137.363C173.523 137.876 172.083 138.75 170.87 140.201C170.067 141.159 169.381 142.573 169.112 143.452C168.241 146.302 165.156 147.435 165.148 147.437L163.698 148.537V148.535Z" fill="url(#paint23_linear_68_415)"/>
<path d="M143.068 119.683C143.068 119.677 142.257 112.278 146.289 108.572C148.167 106.845 149.808 104.981 150.865 103.008C151.891 101.092 152.362 99.0696 151.944 96.9702C151.076 92.6148 148.352 89.3884 148.346 89.3783L148.206 89.3762L144.482 83.5094L149.303 88.5991C149.311 88.6093 152.226 92.0656 153.155 96.7281C153.636 99.1367 153.11 102.98 151.952 105.14C150.826 107.241 149.094 107.666 147.119 109.481C143.444 112.862 143.725 118.033 143.725 118.037C143.579 118.194 143.379 118.316 143.16 118.965L143.068 119.683Z" fill="url(#paint24_linear_68_415)"/>
<path d="M89.9289 126.752L85.7972 114.943C87.1968 116.274 87.9777 117.746 88.4016 120.015L88.4279 120.153C88.6247 121.225 89.4279 125.599 90.0019 125.635L89.9309 126.752C88.4908 126.659 87.5619 121.595 87.3347 120.354L87.3083 120.214C86.6167 116.501 82.1443 113.598 82.1321 113.59L78.9031 111.495L93.0423 115.688L89.9309 126.752H89.9289Z" fill="url(#paint25_linear_68_415)"/>
<path d="M86.7141 137.579L83.0591 126.783C84.3227 128.005 85.0204 129.358 85.3855 131.427L85.4078 131.555C85.5782 132.534 86.2678 136.525 86.7891 136.563L86.7141 137.579C85.4038 137.481 84.6026 132.859 84.4079 131.726L84.3856 131.6C83.7913 128.211 79.7408 125.525 79.7306 125.517L76.8079 123.577L89.651 127.529L86.7141 137.581V137.579Z" fill="url(#paint26_linear_68_415)"/>
<path d="M84.0875 147.052L80.9842 137.634C82.0754 138.708 82.6718 139.888 82.974 141.69L82.9922 141.802C83.1322 142.654 83.7062 146.133 84.1585 146.169L84.0855 147.052C82.9456 146.959 82.2823 142.931 82.1201 141.944L82.1018 141.832C81.6089 138.879 78.1061 136.513 78.0959 136.509L75.5667 134.8L86.7142 138.329L84.0855 147.052H84.0875Z" fill="url(#paint27_linear_68_415)"/>
<path d="M82.0227 155.517L79.3535 147.477C80.2885 148.393 80.7997 149.4 81.0593 150.94L81.0755 151.033C81.1972 151.762 81.6941 154.732 82.0815 154.762L82.0207 155.517C81.0471 155.44 80.4731 152 80.3311 151.157L80.3149 151.064C79.8869 148.543 76.8891 146.529 76.881 146.523L74.7168 145.069L84.2457 148.061L82.0187 155.519L82.0227 155.517Z" fill="url(#paint28_linear_68_415)"/>
<path d="M80.6251 163.363L77.9052 156.933C78.7327 157.622 79.2195 158.416 79.5359 159.665L79.5542 159.742C79.7023 160.332 80.3047 162.739 80.6251 162.739V163.363C79.8199 163.363 79.1222 160.576 78.9518 159.893L78.9335 159.817C78.4163 157.773 75.8221 156.316 75.814 156.312L73.9419 155.261L81.9658 157.089L80.6272 163.365L80.6251 163.363Z" fill="url(#paint29_linear_68_415)"/>
<path d="M104.514 157.71C101.944 158.528 90.1337 215.138 119.319 233.143C121.459 233.615 123.148 234.044 124.605 234.398C130.237 235.765 132.432 236.014 144.046 233.279C159.712 228.088 159.649 225.808 159.649 225.801L160.012 227.634C160.012 227.642 160.954 228.981 144.433 234.455C100.912 248.876 87.8904 193.851 104.512 157.71H104.514Z" fill="url(#paint30_linear_68_415)"/>
<path d="M91.9754 137.833C91.9612 137.855 87.5456 147.154 84.923 158.033C84.2598 160.782 83.5742 163.434 82.915 165.979C80.9496 173.567 79.3047 178.838 79.1708 184.371C79.0592 189.072 79.0187 190.867 78.467 195.694C78.467 195.694 77.8159 192.748 78.0005 184.998C78.1364 179.318 80.477 172.589 82.4607 164.93C83.1179 162.387 83.8055 159.74 84.4647 157.002C87.1298 145.948 91.1093 139.149 91.1235 139.125L91.9754 137.833Z" fill="url(#paint31_linear_68_415)"/>
<path d="M124.229 135.969C124.225 135.955 118.893 126.223 110.405 127.013C103.17 127.688 100.801 127.725 97.3687 122.378C97.3727 122.385 101.634 126.589 110.293 125.784C119.814 124.897 121.134 128.852 121.546 129.267C121.99 130.387 122.152 131.061 122.588 132.346L124.229 135.969Z" fill="url(#paint32_linear_68_415)"/>
<path d="M110.494 326.562C118.236 330.325 113.891 328.639 113.11 327.833C111.305 327.328 110.526 327.483 110.076 327.363L114.301 319.049C115.433 319.35 115.372 323.53 115.358 324.554L115.356 324.668C115.319 327.733 118.422 330.754 118.431 330.762L120.67 332.945L110.074 327.363L110.492 326.562H110.494Z" fill="url(#paint33_linear_68_415)"/>
<path d="M115.544 316.891C121.457 320.823 118.708 319.47 117.99 318.516C116.994 317.853 115.461 317.729 115.07 317.564L119.895 310.572C120.881 310.983 120.319 314.748 120.181 315.672L120.165 315.776C119.759 318.54 122.193 321.647 122.201 321.655L123.958 323.899L115.07 317.562L115.544 316.888V316.891Z" fill="url(#paint34_linear_68_415)"/>
<path d="M121.037 309.038C125.743 312.883 124.037 312.22 122.824 310.499C122.321 310.129 120.893 309.754 120.568 309.579L125.341 303.938C126.158 304.38 125.353 307.592 125.154 308.379L125.132 308.467C124.546 310.824 126.392 313.723 126.396 313.731L127.726 315.825L120.568 309.579L121.037 309.038Z" fill="url(#paint35_linear_68_415)"/>
<path d="M127.296 301.898L129.357 303.83C128.343 303.32 128.929 303.995 128.326 302.864C127.716 302.278 127.132 302.573 126.864 302.404L131.259 297.803C131.931 298.226 131.057 300.917 130.842 301.576L130.817 301.652C130.18 303.627 131.584 306.204 131.588 306.213L132.6 308.074L126.864 302.333L127.294 301.898H127.296Z" fill="url(#paint36_linear_68_415)"/>
<path d="M106.117 339.347C113.761 341.267 112.954 342.25 109.729 340.706C107.362 340.714 106.393 340.47 105.811 340.437L108.867 329.153C110.332 329.233 111.328 334.373 111.571 335.634L111.597 335.777C112.338 339.546 116.915 342.453 116.928 342.461L120.232 344.561L105.811 340.437L106.119 339.347H106.117Z" fill="url(#paint37_linear_68_415)"/>
<path d="M170.444 215.96L173.113 214.613C172.588 215.187 171.799 215.602 170.541 216.765L169.509 208.486C170.01 208.022 171.274 210.955 171.584 211.675L171.618 211.757C172.549 213.905 174.598 214.155 174.602 214.155L176.081 214.338L170.541 216.767L170.446 215.962L170.444 215.96Z" fill="url(#paint38_linear_68_415)"/>
<path d="M168.868 207.493C173.229 206.48 171.523 206.649 168.868 208.278L168.491 200.523C168.978 200.222 169.947 203.168 170.184 203.89L170.211 203.971C170.923 206.13 172.783 206.836 172.787 206.84L174.129 207.352L168.904 208.241L168.868 207.493Z" fill="url(#paint39_linear_68_415)"/>
<path d="M167.968 199.455L169.959 198.772C169.469 199.177 169.166 199.238 168.148 200.084L166.258 193.607C166.605 193.316 168.002 195.729 168.343 196.321L168.381 196.388C169.408 198.155 171.099 198.613 171.103 198.615L172.324 198.947L168.146 200.086L167.966 199.457L167.968 199.455Z" fill="url(#paint40_linear_68_415)"/>
<path d="M164.919 192.516L166.657 192.038C166.578 192.439 165.998 192.366 165.096 193.047L163.262 187.591C163.56 187.368 164.854 189.428 165.171 189.935L165.207 189.992C166.158 191.503 167.659 191.959 167.663 191.959L168.748 192.289L165.096 193.047L164.921 192.518L164.919 192.516Z" fill="url(#paint41_linear_68_415)"/>
<path d="M171.896 225.148C177.935 223.246 174.722 225.028 174.59 224.707C174.33 224.06 172.146 225.836 171.829 226.017L171.998 217.459C172.793 217.005 174.02 220.059 174.32 220.807L174.353 220.893C175.257 223.128 178.103 223.468 178.111 223.47L180.166 223.716L171.876 225.974L171.894 225.146L171.896 225.148Z" fill="url(#paint42_linear_68_415)"/>
<path d="M166.982 247.135C171.659 249.285 168.558 248.406 168.41 248.225C167.566 247.839 167.077 247.737 166.84 247.688L168.256 241.97C168.852 242.092 169.183 244.828 169.262 245.499L169.272 245.575C169.517 247.582 171.343 249.35 171.347 249.356L172.665 250.634L166.842 247.688L166.984 247.137L166.982 247.135Z" fill="url(#paint43_linear_68_415)"/>
<path d="M169.483 241.657C173.738 243.599 171.063 242.572 170.83 242.273C170.083 242.096 169.473 242.324 169.25 242.275L170.446 237.035C171.002 237.155 171.42 239.62 171.521 240.224L171.533 240.292C171.844 242.1 173.604 243.721 173.608 243.725L174.878 244.897L169.371 242.151L169.481 241.657H169.483Z" fill="url(#paint44_linear_68_415)"/>
<path d="M171.002 236.154C175.478 238.186 172.511 237.179 172.407 237.049C171.874 236.803 171.127 236.687 170.902 236.636L171.866 231.648C172.432 231.774 172.91 234.195 173.028 234.789L173.042 234.856C173.397 236.632 175.212 238.247 175.219 238.251L176.531 239.419L170.902 236.638L171.002 236.156V236.154Z" fill="url(#paint45_linear_68_415)"/>
<path d="M172.302 231.19C178.121 231.619 175.35 231.699 174.277 231.337C173.722 231.642 172.614 231.697 172.306 231.727L172.207 226.188C172.981 226.113 174.271 228.452 174.588 229.026L174.622 229.091C175.574 230.808 178.397 231.823 178.405 231.825L180.443 232.559L172.304 231.729L172.302 231.192V231.19Z" fill="url(#paint46_linear_68_415)"/>
<path d="M163.169 256.379C168.901 258.246 165.298 257.449 164.966 256.963C164.041 256.775 163.309 257.119 163.012 257.099L164.568 249.653C165.313 249.706 165.82 253.095 165.943 253.927L165.958 254.021C166.333 256.507 168.663 258.425 168.669 258.431L170.351 259.817L163.014 257.097L163.171 256.377L163.169 256.379Z" fill="url(#paint47_linear_68_415)"/>
<path d="M169.475 131.614C170.087 131.799 170.166 132.094 170.302 132.613C170.353 133.524 170.176 134.336 169.024 134.578C167.765 134.539 167.722 133.884 167.722 133.88C169.742 134.869 170.369 132.82 169.475 131.614Z" fill="url(#paint48_linear_68_415)"/>
<path d="M172.036 95.0763L171.752 94.7244C170.097 92.6718 161.905 82.5166 158.601 80.8567C154.987 79.04 140.626 78.2711 140.594 78.2711L143.644 77.8703C143.677 77.8703 155.238 78.0107 159.061 79.9311C162.562 81.6907 171.939 94.0205 173.62 96.1057L173.641 97.4198L172.036 95.0743V95.0763Z" fill="url(#paint49_linear_68_415)"/>
<path d="M175.63 123.963C177.34 124.36 185.971 120.887 185.971 120.102L190.394 116.133C190.394 116.621 186.624 120.963 186.011 121.357C184.393 122.401 181.08 123.717 178.632 124.026L175.628 123.965L175.63 123.963Z" fill="url(#paint50_linear_68_415)"/>
<path d="M167.71 132.318C168.179 131.266 169.193 130.514 169.667 130.324L174.29 124.964L170.704 136.071L170.391 136.228C168.282 137.29 166.051 138.276 166.071 137.904C166.292 133.779 166.077 135.982 167.71 132.318ZM167.552 135.487L167.68 135.526C170.694 136.181 170.556 133.341 171.146 131.028C168.913 131.811 168 133.555 167.552 135.487Z" fill="url(#paint51_linear_68_415)"/>
<path d="M77.9499 181.983C86.8399 182.264 95.1194 183.289 102.792 185.059C102.715 186.426 102.693 187.724 102.75 188.877C102.965 193.393 104.504 202.234 107.896 210.288C97.2126 208.671 85.2396 209.132 78.7774 199.201C78.3414 197.024 78.0249 194.943 77.8343 193.001C77.528 189.878 77.6274 186.031 77.9519 181.983H77.9499ZM119.307 190.419C122.467 191.78 125.493 193.308 128.387 194.996C127.978 195.989 127.507 196.941 127.469 197.657C127.386 199.258 127.069 201.659 127.069 201.659L125.828 204.987L123.286 208.443C119.591 213.47 122.388 205.143 120.828 207.603C119.268 210.062 119.147 211.881 119.301 205.583C119.453 199.285 119.467 201.624 120.481 199.6C121.495 197.578 119.913 196.886 120.504 194.191C120.765 193.001 120.222 191.725 119.309 190.421L119.307 190.419ZM160.869 234.038C163.548 242.031 164.941 250.927 165.045 260.476C164.941 260.736 165.039 260.85 165.049 260.962C165.252 263.358 131.081 302.083 132.716 297.536C133.322 295.852 135.466 290.962 136.821 286.352C138.113 281.95 138.561 277.985 138.606 277.926C140.21 275.806 146.076 266.837 149.962 260.079C153.897 253.24 157.609 246.295 158.289 243.837C159.226 240.446 160.301 236.27 160.871 234.036L160.869 234.038Z" fill="url(#paint52_linear_68_415)"/>
<path d="M97.8048 184.027C98.5431 184.162 99.2753 184.304 100.001 184.453C99.8453 192.531 100.555 201.433 102.932 209.647C101.951 209.533 100.969 209.419 99.9872 209.299C97.8271 201.541 97.103 192.811 97.8048 184.029V184.027Z" fill="url(#paint53_linear_68_415)"/>
<path d="M78.25 181.991L79.3129 182.03C79.2358 182.809 79.1871 183.586 79.1689 184.369C79.0573 189.07 79.0167 190.865 78.465 195.692C78.465 195.692 77.814 192.746 77.9985 184.996C78.0208 184.025 78.1101 183.022 78.248 181.991H78.25Z" fill="url(#paint54_linear_68_415)"/>
<path d="M164.428 250.317C164.678 252.487 164.852 254.7 164.952 256.961C164.033 256.779 163.307 257.119 163.01 257.099L164.426 250.317H164.428ZM164.954 256.977L164.986 257.829L163.013 257.097L163.169 256.377C163.911 256.619 164.497 256.816 164.954 256.975V256.977Z" fill="url(#paint55_linear_68_415)"/>
</g>
<defs>
<linearGradient id="paint0_linear_68_415" x1="246.286" y1="498.388" x2="46.5606" y2="143.526" gradientUnits="userSpaceOnUse">
<stop offset="0.430746"/>
<stop offset="0.620751" stop-color="#FF3D00" stop-opacity="0.15"/>
<stop offset="1" stop-color="#A40000"/>
</linearGradient>
<linearGradient id="paint1_linear_68_415" x1="377.134" y1="496.466" x2="177.65" y2="142.039" gradientUnits="userSpaceOnUse">
<stop offset="0.430746"/>
<stop offset="0.620751" stop-color="#FF3D00" stop-opacity="0.15"/>
<stop offset="1" stop-color="#A40000"/>
</linearGradient>
<linearGradient id="paint2_linear_68_415" x1="240.475" y1="235.296" x2="102.418" y2="-2.4615" gradientUnits="userSpaceOnUse">
<stop offset="0.430746"/>
<stop offset="0.620751" stop-color="#FF3D00" stop-opacity="0.15"/>
<stop offset="1" stop-color="#A40000"/>
</linearGradient>
<linearGradient id="paint3_linear_68_415" x1="318.375" y1="801.5" x2="-262.832" y2="157.131" gradientUnits="userSpaceOnUse">
<stop offset="0.430746"/>
<stop offset="0.620751" stop-color="#FF3D00" stop-opacity="0.15"/>
<stop offset="1" stop-color="#A40000"/>
</linearGradient>
<linearGradient id="paint4_linear_68_415" x1="154.679" y1="241.791" x2="86.3593" y2="129.327" gradientUnits="userSpaceOnUse">
<stop offset="0.430746"/>
<stop offset="0.620751" stop-color="#FF3D00" stop-opacity="0.15"/>
<stop offset="1" stop-color="#A40000"/>
</linearGradient>
<linearGradient id="paint5_linear_68_415" x1="136.602" y1="191.554" x2="111.432" y2="153.21" gradientUnits="userSpaceOnUse">
<stop offset="0.430746"/>
<stop offset="0.620751" stop-color="#FF3D00" stop-opacity="0.15"/>
<stop offset="1" stop-color="#A40000"/>
</linearGradient>
<linearGradient id="paint6_linear_68_415" x1="148.813" y1="157.008" x2="127.218" y2="88.0004" gradientUnits="userSpaceOnUse">
<stop offset="0.430746"/>
<stop offset="0.620751" stop-color="#FF3D00" stop-opacity="0.15"/>
<stop offset="1" stop-color="#A40000"/>
</linearGradient>
<linearGradient id="paint7_linear_68_415" x1="143.23" y1="144.12" x2="111.489" y2="114.477" gradientUnits="userSpaceOnUse">
<stop offset="0.430746"/>
<stop offset="0.620751" stop-color="#FF3D00" stop-opacity="0.15"/>
<stop offset="1" stop-color="#A40000"/>
</linearGradient>
<linearGradient id="paint8_linear_68_415" x1="179.587" y1="261.903" x2="0.490515" y2="13.5617" gradientUnits="userSpaceOnUse">
<stop offset="0.430746"/>
<stop offset="0.620751" stop-color="#FF3D00" stop-opacity="0.15"/>
<stop offset="1" stop-color="#A40000"/>
</linearGradient>
<linearGradient id="paint9_linear_68_415" x1="142.039" y1="214.684" x2="14.2265" y2="-18.6536" gradientUnits="userSpaceOnUse">
<stop offset="0.430746"/>
<stop offset="0.620751" stop-color="#FF3D00" stop-opacity="0.15"/>
<stop offset="1" stop-color="#A40000"/>
</linearGradient>
<linearGradient id="paint10_linear_68_415" x1="127.612" y1="136.802" x2="96.7658" y2="82.9102" gradientUnits="userSpaceOnUse">
<stop offset="0.430746"/>
<stop offset="0.620751" stop-color="#FF3D00" stop-opacity="0.15"/>
<stop offset="1" stop-color="#A40000"/>
</linearGradient>
<linearGradient id="paint11_linear_68_415" x1="166.941" y1="263.651" x2="128.571" y2="237.99" gradientUnits="userSpaceOnUse">
<stop offset="0.430746"/>
<stop offset="0.620751" stop-color="#FF3D00" stop-opacity="0.15"/>
<stop offset="1" stop-color="#A40000"/>
</linearGradient>
<linearGradient id="paint12_linear_68_415" x1="168.984" y1="108.811" x2="119.545" y2="41.4351" gradientUnits="userSpaceOnUse">
<stop offset="0.430746"/>
<stop offset="0.620751" stop-color="#FF3D00" stop-opacity="0.15"/>
<stop offset="1" stop-color="#A40000"/>
</linearGradient>
<linearGradient id="paint13_linear_68_415" x1="169.164" y1="107.227" x2="121.933" y2="78.2776" gradientUnits="userSpaceOnUse">
<stop offset="0.430746"/>
<stop offset="0.620751" stop-color="#FF3D00" stop-opacity="0.15"/>
<stop offset="1" stop-color="#A40000"/>
</linearGradient>
<linearGradient id="paint14_linear_68_415" x1="199.126" y1="130.039" x2="131.716" y2="41.3974" gradientUnits="userSpaceOnUse">
<stop offset="0.430746"/>
<stop offset="0.620751" stop-color="#FF3D00" stop-opacity="0.15"/>
<stop offset="1" stop-color="#A40000"/>
</linearGradient>
<linearGradient id="paint15_linear_68_415" x1="180.643" y1="53.2135" x2="174.187" y2="27.7896" gradientUnits="userSpaceOnUse">
<stop offset="0.430746"/>
<stop offset="0.620751" stop-color="#FF3D00" stop-opacity="0.15"/>
<stop offset="1" stop-color="#A40000"/>
</linearGradient>
<linearGradient id="paint16_linear_68_415" x1="170.712" y1="85.7628" x2="134.213" y2="51.9509" gradientUnits="userSpaceOnUse">
<stop offset="0.430746"/>
<stop offset="0.620751" stop-color="#FF3D00" stop-opacity="0.15"/>
<stop offset="1" stop-color="#A40000"/>
</linearGradient>
<linearGradient id="paint17_linear_68_415" x1="190.71" y1="55.1267" x2="174.071" y2="7.33244" gradientUnits="userSpaceOnUse">
<stop offset="0.430746"/>
<stop offset="0.620751" stop-color="#FF3D00" stop-opacity="0.15"/>
<stop offset="1" stop-color="#A40000"/>
</linearGradient>
<linearGradient id="paint18_linear_68_415" x1="111.783" y1="103.906" x2="67.2256" y2="63.0399" gradientUnits="userSpaceOnUse">
<stop offset="0.430746"/>
<stop offset="0.620751" stop-color="#FF3D00" stop-opacity="0.15"/>
<stop offset="1" stop-color="#A40000"/>
</linearGradient>
<linearGradient id="paint19_linear_68_415" x1="198.727" y1="157.274" x2="160.191" y2="101.173" gradientUnits="userSpaceOnUse">
<stop offset="0.430746"/>
<stop offset="0.620751" stop-color="#FF3D00" stop-opacity="0.15"/>
<stop offset="1" stop-color="#A40000"/>
</linearGradient>
<linearGradient id="paint20_linear_68_415" x1="118.62" y1="131.725" x2="87.4945" y2="90.1424" gradientUnits="userSpaceOnUse">
<stop offset="0.430746"/>
<stop offset="0.620751" stop-color="#FF3D00" stop-opacity="0.15"/>
<stop offset="1" stop-color="#A40000"/>
</linearGradient>
<linearGradient id="paint21_linear_68_415" x1="185.47" y1="166.051" x2="131.042" y2="135.329" gradientUnits="userSpaceOnUse">
<stop offset="0.430746"/>
<stop offset="0.620751" stop-color="#FF3D00" stop-opacity="0.15"/>
<stop offset="1" stop-color="#A40000"/>
</linearGradient>
<linearGradient id="paint22_linear_68_415" x1="196.093" y1="142.4" x2="168.838" y2="105.036" gradientUnits="userSpaceOnUse">
<stop offset="0.430746"/>
<stop offset="0.620751" stop-color="#FF3D00" stop-opacity="0.15"/>
<stop offset="1" stop-color="#A40000"/>
</linearGradient>
<linearGradient id="paint23_linear_68_415" x1="189.315" y1="166.702" x2="167.903" y2="124.587" gradientUnits="userSpaceOnUse">
<stop offset="0.430746"/>
<stop offset="0.620751" stop-color="#FF3D00" stop-opacity="0.15"/>
<stop offset="1" stop-color="#A40000"/>
</linearGradient>
<linearGradient id="paint24_linear_68_415" x1="160.168" y1="155.812" x2="111.626" y2="123.645" gradientUnits="userSpaceOnUse">
<stop offset="0.430746"/>
<stop offset="0.620751" stop-color="#FF3D00" stop-opacity="0.15"/>
<stop offset="1" stop-color="#A40000"/>
</linearGradient>
<linearGradient id="paint25_linear_68_415" x1="102.397" y1="141.99" x2="85.3959" y2="105.434" gradientUnits="userSpaceOnUse">
<stop offset="0.430746"/>
<stop offset="0.620751" stop-color="#FF3D00" stop-opacity="0.15"/>
<stop offset="1" stop-color="#A40000"/>
</linearGradient>
<linearGradient id="paint26_linear_68_415" x1="98.1483" y1="151.567" x2="82.4386" y2="118.139" gradientUnits="userSpaceOnUse">
<stop offset="0.430746"/>
<stop offset="0.620751" stop-color="#FF3D00" stop-opacity="0.15"/>
<stop offset="1" stop-color="#A40000"/>
</linearGradient>
<linearGradient id="paint27_linear_68_415" x1="94.0895" y1="159.29" x2="80.2748" y2="130.127" gradientUnits="userSpaceOnUse">
<stop offset="0.430746"/>
<stop offset="0.620751" stop-color="#FF3D00" stop-opacity="0.15"/>
<stop offset="1" stop-color="#A40000"/>
</linearGradient>
<linearGradient id="paint28_linear_68_415" x1="90.5502" y1="165.956" x2="78.7843" y2="141.063" gradientUnits="userSpaceOnUse">
<stop offset="0.430746"/>
<stop offset="0.620751" stop-color="#FF3D00" stop-opacity="0.15"/>
<stop offset="1" stop-color="#A40000"/>
</linearGradient>
<linearGradient id="paint29_linear_68_415" x1="87.2746" y1="171.46" x2="78.6308" y2="151.604" gradientUnits="userSpaceOnUse">
<stop offset="0.430746"/>
<stop offset="0.620751" stop-color="#FF3D00" stop-opacity="0.15"/>
<stop offset="1" stop-color="#A40000"/>
</linearGradient>
<linearGradient id="paint30_linear_68_415" x1="201.361" y1="315.815" x2="104.436" y2="138.178" gradientUnits="userSpaceOnUse">
<stop offset="0.430746"/>
<stop offset="0.620751" stop-color="#FF3D00" stop-opacity="0.15"/>
<stop offset="1" stop-color="#A40000"/>
</linearGradient>
<linearGradient id="paint31_linear_68_415" x1="101.243" y1="253.484" x2="29.2431" y2="213.04" gradientUnits="userSpaceOnUse">
<stop offset="0.430746"/>
<stop offset="0.620751" stop-color="#FF3D00" stop-opacity="0.15"/>
<stop offset="1" stop-color="#A40000"/>
</linearGradient>
<linearGradient id="paint32_linear_68_415" x1="142.001" y1="149.544" x2="133.755" y2="111.734" gradientUnits="userSpaceOnUse">
<stop offset="0.430746"/>
<stop offset="0.620751" stop-color="#FF3D00" stop-opacity="0.15"/>
<stop offset="1" stop-color="#A40000"/>
</linearGradient>
<linearGradient id="paint33_linear_68_415" x1="127.68" y1="346.824" x2="110.332" y2="316.133" gradientUnits="userSpaceOnUse">
<stop offset="0.430746"/>
<stop offset="0.620751" stop-color="#FF3D00" stop-opacity="0.15"/>
<stop offset="1" stop-color="#A40000"/>
</linearGradient>
<linearGradient id="paint34_linear_68_415" x1="129.838" y1="337.209" x2="112.134" y2="309.812" gradientUnits="userSpaceOnUse">
<stop offset="0.430746"/>
<stop offset="0.620751" stop-color="#FF3D00" stop-opacity="0.15"/>
<stop offset="1" stop-color="#A40000"/>
</linearGradient>
<linearGradient id="paint35_linear_68_415" x1="132.462" y1="327.696" x2="116.068" y2="304.79" gradientUnits="userSpaceOnUse">
<stop offset="0.430746"/>
<stop offset="0.620751" stop-color="#FF3D00" stop-opacity="0.15"/>
<stop offset="1" stop-color="#A40000"/>
</linearGradient>
<linearGradient id="paint36_linear_68_415" x1="136.395" y1="318.332" x2="121.917" y2="299.573" gradientUnits="userSpaceOnUse">
<stop offset="0.430746"/>
<stop offset="0.620751" stop-color="#FF3D00" stop-opacity="0.15"/>
<stop offset="1" stop-color="#A40000"/>
</linearGradient>
<linearGradient id="paint37_linear_68_415" x1="129.773" y1="359.949" x2="112.714" y2="322.903" gradientUnits="userSpaceOnUse">
<stop offset="0.430746"/>
<stop offset="0.620751" stop-color="#FF3D00" stop-opacity="0.15"/>
<stop offset="1" stop-color="#A40000"/>
</linearGradient>
<linearGradient id="paint38_linear_68_415" x1="180.429" y1="225.088" x2="170.213" y2="206.391" gradientUnits="userSpaceOnUse">
<stop offset="0.430746"/>
<stop offset="0.620751" stop-color="#FF3D00" stop-opacity="0.15"/>
<stop offset="1" stop-color="#A40000"/>
</linearGradient>
<linearGradient id="paint39_linear_68_415" x1="177.86" y1="216.045" x2="167.907" y2="199.299" gradientUnits="userSpaceOnUse">
<stop offset="0.430746"/>
<stop offset="0.620751" stop-color="#FF3D00" stop-opacity="0.15"/>
<stop offset="1" stop-color="#A40000"/>
</linearGradient>
<linearGradient id="paint40_linear_68_415" x1="176.338" y1="206.581" x2="169.122" y2="190.963" gradientUnits="userSpaceOnUse">
<stop offset="0.430746"/>
<stop offset="0.620751" stop-color="#FF3D00" stop-opacity="0.15"/>
<stop offset="1" stop-color="#A40000"/>
</linearGradient>
<linearGradient id="paint41_linear_68_415" x1="172.378" y1="198.513" x2="166.591" y2="185.052" gradientUnits="userSpaceOnUse">
<stop offset="0.430746"/>
<stop offset="0.620751" stop-color="#FF3D00" stop-opacity="0.15"/>
<stop offset="1" stop-color="#A40000"/>
</linearGradient>
<linearGradient id="paint42_linear_68_415" x1="185.681" y1="234.61" x2="176.37" y2="213.678" gradientUnits="userSpaceOnUse">
<stop offset="0.430746"/>
<stop offset="0.620751" stop-color="#FF3D00" stop-opacity="0.15"/>
<stop offset="1" stop-color="#A40000"/>
</linearGradient>
<linearGradient id="paint43_linear_68_415" x1="176.519" y1="259.287" x2="165.048" y2="241.391" gradientUnits="userSpaceOnUse">
<stop offset="0.430746"/>
<stop offset="0.620751" stop-color="#FF3D00" stop-opacity="0.15"/>
<stop offset="1" stop-color="#A40000"/>
</linearGradient>
<linearGradient id="paint44_linear_68_415" x1="178.602" y1="252.75" x2="168.477" y2="235.932" gradientUnits="userSpaceOnUse">
<stop offset="0.430746"/>
<stop offset="0.620751" stop-color="#FF3D00" stop-opacity="0.15"/>
<stop offset="1" stop-color="#A40000"/>
</linearGradient>
<linearGradient id="paint45_linear_68_415" x1="180.255" y1="247.18" x2="170.303" y2="230.455" gradientUnits="userSpaceOnUse">
<stop offset="0.430746"/>
<stop offset="0.620751" stop-color="#FF3D00" stop-opacity="0.15"/>
<stop offset="1" stop-color="#A40000"/>
</linearGradient>
<linearGradient id="paint46_linear_68_415" x1="185.893" y1="238.925" x2="180.319" y2="222.21" gradientUnits="userSpaceOnUse">
<stop offset="0.430746"/>
<stop offset="0.620751" stop-color="#FF3D00" stop-opacity="0.15"/>
<stop offset="1" stop-color="#A40000"/>
</linearGradient>
<linearGradient id="paint47_linear_68_415" x1="175.206" y1="269.967" x2="162.171" y2="248.13" gradientUnits="userSpaceOnUse">
<stop offset="0.430746"/>
<stop offset="0.620751" stop-color="#FF3D00" stop-opacity="0.15"/>
<stop offset="1" stop-color="#A40000"/>
</linearGradient>
<linearGradient id="paint48_linear_68_415" x1="172.022" y1="137.538" x2="168.593" y2="130.593" gradientUnits="userSpaceOnUse">
<stop offset="0.430746"/>
<stop offset="0.620751" stop-color="#FF3D00" stop-opacity="0.15"/>
<stop offset="1" stop-color="#A40000"/>
</linearGradient>
<linearGradient id="paint49_linear_68_415" x1="195.505" y1="116.945" x2="181.866" y2="63.4503" gradientUnits="userSpaceOnUse">
<stop offset="0.430746"/>
<stop offset="0.620751" stop-color="#FF3D00" stop-opacity="0.15"/>
<stop offset="1" stop-color="#A40000"/>
</linearGradient>
<linearGradient id="paint50_linear_68_415" x1="200.164" y1="131.909" x2="195.132" y2="110.066" gradientUnits="userSpaceOnUse">
<stop offset="0.430746"/>
<stop offset="0.620751" stop-color="#FF3D00" stop-opacity="0.15"/>
<stop offset="1" stop-color="#A40000"/>
</linearGradient>
<linearGradient id="paint51_linear_68_415" x1="179.727" y1="150.988" x2="162.057" y2="125.109" gradientUnits="userSpaceOnUse">
<stop offset="0.430746"/>
<stop offset="0.620751" stop-color="#FF3D00" stop-opacity="0.15"/>
<stop offset="1" stop-color="#A40000"/>
</linearGradient>
<linearGradient id="paint52_linear_68_415" x1="222.875" y1="413.688" x2="77.3185" y2="159.062" gradientUnits="userSpaceOnUse">
<stop offset="0.430746"/>
<stop offset="0.620751" stop-color="#FF3D00" stop-opacity="0.15"/>
<stop offset="1" stop-color="#A40000"/>
</linearGradient>
<linearGradient id="paint53_linear_68_415" x1="106.496" y1="235.235" x2="77.0754" y2="220.883" gradientUnits="userSpaceOnUse">
<stop offset="0.430746"/>
<stop offset="0.620751" stop-color="#FF3D00" stop-opacity="0.15"/>
<stop offset="1" stop-color="#A40000"/>
</linearGradient>
<linearGradient id="paint54_linear_68_415" x1="80.2042" y1="209.376" x2="71.545" y2="207.4" gradientUnits="userSpaceOnUse">
<stop offset="0.430746"/>
<stop offset="0.620751" stop-color="#FF3D00" stop-opacity="0.15"/>
<stop offset="1" stop-color="#A40000"/>
</linearGradient>
<linearGradient id="paint55_linear_68_415" x1="166.293" y1="265.332" x2="156.559" y2="259.393" gradientUnits="userSpaceOnUse">
<stop offset="0.430746"/>
<stop offset="0.620751" stop-color="#FF3D00" stop-opacity="0.15"/>
<stop offset="1" stop-color="#A40000"/>
</linearGradient>
<clipPath id="clip0_68_415">
<rect width="296" height="401" fill="white"/>
</clipPath>
</defs>
</svg>
