<svg width="135" height="243" viewBox="0 0 135 243" fill="none" xmlns="http://www.w3.org/2000/svg">
<path fill-rule="evenodd" clip-rule="evenodd" d="M118.868 62.6337C118.868 62.6337 118.924 55.8768 119.032 55.4553C119.141 55.0338 119.848 52.7602 121.209 49.1445C122.568 45.5287 125.017 52.4311 125.017 52.4311C125.017 52.4311 127.465 56.8442 127.573 57.8781C127.682 58.9108 128.607 63.6997 129.424 66.2347C130.239 68.7696 131.164 79.8028 131.546 75.5783C131.926 71.3526 129.532 64.4502 129.859 60.8357C130.186 57.2213 128.171 47.0815 127.844 43.6063C127.519 40.1311 122.459 30.695 122.948 30.8835C123.438 31.0708 127.028 33.3248 129.204 36.2356C131.38 39.1464 130.455 39.0996 130.292 36.5634C130.129 34.0285 123.982 28.4878 122.35 27.0337C120.717 25.5783 115.495 17.5027 115.387 16.4244C115.278 15.3448 116.748 14.4058 119.139 13.2782C121.533 12.1518 122.622 11.9633 124.526 12.2923C126.431 12.6214 126.648 13.4199 127.517 13.7946C128.387 14.1704 128.878 13.7009 126.919 12.0101C124.96 10.3193 121.263 10.3662 119.031 10.5079C116.8 10.6484 114.299 11.4938 113.7 12.2443C113.102 12.9948 108.151 19.6162 108.151 19.6162C108.151 19.6162 106.466 17.3154 105.322 14.3109C104.18 11.3064 105.539 12.4328 104.887 13.1845C104.234 13.935 104.126 15.1563 104.397 16.518C104.67 17.8798 104.995 17.9734 105.812 20.3679C106.627 22.7623 105.104 22.1523 105.05 23.466C104.995 24.7797 99.122 32.3821 94.4425 37.5505C89.7616 42.719 75.6004 47.0495 74.5965 47.1986C73.594 47.3477 118.868 62.6337 118.868 62.6337Z" fill="white"/>
<path fill-rule="evenodd" clip-rule="evenodd" d="M104.948 66.897C104.948 66.897 107.211 64.346 107.091 63.1223C106.971 61.8986 109.476 61.5387 110.52 61.9466C110.88 62.0871 111.689 62.6885 112.606 63.4563C114.345 64.9104 116.475 66.9598 116.67 67.5772C116.969 68.52 116.911 69.48 116.05 72.2959C115.188 75.1118 114.208 72.6718 114.244 71.506C114.28 70.3402 113.359 69.8534 113.023 72.8332C112.688 75.8143 114.742 75.9165 114.207 77.1415C113.671 78.3664 113.494 79.7935 113.197 81.3746C112.9 82.9557 111.888 84.2817 111.232 85.0482C110.577 85.8135 110.815 85.763 110.937 86.9867C111.057 88.2104 110.044 88.3645 111.297 89.4342C112.55 90.5038 113.683 89.8396 113.624 91.4725C113.566 93.1041 113.032 95.0426 113.926 94.175C114.819 93.3074 116.19 90.6037 117.798 89.2247C119.408 87.8469 122.806 85.3958 123.64 84.9361C124.475 84.4764 124.414 84.1203 125.488 83.0481C126.56 81.976 125.01 81.6716 127.456 81.7209C129.902 81.7702 130.08 81.6174 130.08 81.6174L128.648 80.8028L131.093 79.3227L128.108 78.7633L128.761 75.1931C128.761 75.1931 133.612 71.92 134.243 69.8337C134.875 67.7485 134.897 67.5883 134.897 67.5883C134.897 67.5883 131.918 71.1621 130.369 72.132C128.818 73.1019 128.755 70.0419 128.815 69.0733C128.874 68.1047 131.077 65.2974 131.911 63.8691C132.745 62.4408 135.064 55.4078 134.046 52.3417C133.029 49.2756 132.402 48.7285 131.253 47.4247C131.157 47.3162 131.081 47.2262 131.024 47.1548C130.786 46.859 130.837 46.8602 131.024 47.1548C131.343 47.6551 132.051 49.0045 132.375 51.1698C132.935 54.9149 130.597 62.0847 129.942 62.7477C129.286 63.4107 128.154 64.993 128.154 64.993C128.154 64.993 125.522 58.6711 124.865 57.9575C124.208 57.2452 125.511 47.7253 125.511 47.7253L123.015 55.8687C123.015 55.8687 120.837 52.656 119.523 52.0965C118.209 51.537 117.791 49.6232 116.299 49.5221C114.807 49.4211 114.957 49.3952 113.463 48.2232C111.971 47.0512 111.849 45.4701 111.254 46.5928C110.658 47.7155 107.791 45.167 106.597 44.8108C105.403 44.4547 105.285 44.658 105.166 45.5774C105.048 46.4955 102.635 44.0948 101.382 44.4276C100.13 44.7603 101.735 45.1707 101.975 46.0888C102.215 47.0069 97.3781 44.7665 96.7827 45.1239C96.1872 45.4812 96.5742 45.4812 96.6941 46.0925C96.8141 46.705 92.9343 45.2791 92.5173 46.0962C92.1003 46.9132 94.1295 47.8806 94.4879 48.2885C94.8478 48.6964 90.4296 48.0877 89.2972 47.9361C88.1648 47.7845 88.0906 48.1788 88.449 49.4026C88.8088 50.6263 76.9466 49.1191 73.1196 42.7984C69.2941 36.4765 66.7266 34.9484 70.7192 30.0485C74.7118 25.1487 83.8952 19.2248 85.9229 18.8157C87.9506 18.4066 91.7691 17.0251 93.0814 17.2802C94.3951 17.5341 96.6013 16.3079 96.6599 15.7989C96.7184 15.2887 101.047 11.3279 100.514 8.40728C100.381 7.68266 100.32 7.23039 100.294 6.99255C100.261 6.69802 100.284 6.73376 100.294 6.99255C100.308 7.36472 100.296 8.19902 100.054 9.16518C99.5101 11.344 95.6432 13.3515 95.6432 13.3515C95.6432 13.3515 94.6279 12.3828 92.2431 13.7618C89.857 15.1408 88.2462 12.9473 83.2297 9.07399C78.2132 5.20195 72.7769 -0.0478536 67.1079 0.00760202C61.4388 0.0630577 50.3977 -0.386749 46.4022 1.60472C42.4053 3.59743 38.8167 8.1756 39.545 7.32282C40.2747 6.47127 43.1207 3.18829 47.7159 3.49022C52.3126 3.79214 58.2801 4.14583 59.3554 6.43923C60.4321 8.73386 52.0827 12.5159 48.6812 13.2837C45.2812 14.0514 39.1966 17.3714 36.3363 21.1485C33.4761 24.9257 28.4668 29.4693 27.2744 30.2864C26.082 31.1034 20.303 40.4939 20.303 40.4939C20.303 40.4939 12.1921 46.7752 10.6442 49.4802C9.0948 52.1852 4.50956 61.0643 3.08301 65.81C1.65646 70.5546 -0.00285228 82.952 3.68156e-06 85.3502C0.00285964 87.7483 3.30435 105.805 3.30435 105.805C3.30435 105.805 -0.18135 82.5959 3.98549 73.0008C8.15376 63.407 8.9263 60.7032 10.3586 60.7525C11.7908 60.803 18.4723 57.9908 18.4709 56.9199C18.4695 55.849 16.8559 53.8094 19.1249 54.624C21.394 55.4386 25.0325 54.7214 24.557 56.252C24.0814 57.7825 24.5641 62.3225 26.7146 63.9529C28.8652 65.5833 29.8262 71.6021 31.0214 73.1832C32.2166 74.7631 31.6854 80.019 32.0453 81.6001C32.3994 83.159 36.195 104.11 36.5377 107.133C36.542 107.179 36.5463 107.219 36.5505 107.256C36.5777 107.54 36.5705 107.474 36.5377 107.133C36.2749 104.44 34.3914 84.5196 34.9726 82.6168C35.6266 80.4738 39.4351 70.2675 39.4351 70.2675C39.4351 70.2675 38.6597 69.7573 39.0752 68.1244C39.4908 66.4928 42.0568 65.4182 42.8908 64.245C43.7247 63.0705 46.0523 63.1716 48.6198 63.2714C51.1859 63.3712 53.9333 63.8802 56.5594 64.1833C59.1854 64.4877 62.287 63.3108 62.5255 62.8524C62.764 62.3927 66.9436 64.9918 66.8251 65.8593C66.7066 66.7269 58.1373 91.2223 57.7232 93.671C57.3076 96.1196 53.9719 109.701 54.7958 116.913C56.2181 129.372 67.4748 151.252 86.377 151.678C100.655 151.999 102.685 149.693 113.54 140.81C113.54 140.81 112.389 144.752 111.439 147.712C110.961 149.201 108.348 153.408 105.578 157.551C102.842 161.645 99.9528 165.676 98.8204 166.962C84.7905 182.894 64.5832 203.264 69.2927 224.019C70.3108 228.507 72.3485 235.294 76.7096 238.657C86.1342 245.926 92.2388 243.395 99.4473 234.864C100.066 234.133 94.9163 237.672 91.1593 239.92C74.3606 249.971 61.4973 204.034 97.2339 177.16C99.6786 175.321 116.018 159.286 116.076 158.062C116.135 156.837 127.403 142.084 124.405 130.656C121.408 119.229 118.001 113.975 114.657 112.957C111.312 111.939 110.611 113.189 108.871 116.839C107.13 120.489 105.245 130.006 100.413 133.938C95.5817 137.87 88.3619 140.123 81.7889 135.025C75.2173 129.928 72.5784 118.806 72.3357 114.418C72.0915 110.029 73.9936 102.17 73.9936 102.17V101.92L78.9244 104.661C78.9244 104.661 78.0919 107.749 78.0933 108.669C78.0947 109.587 79.0572 110.536 80.9093 112.32C82.7614 114.105 85.2518 116.005 84.8348 117.638C84.4192 119.272 85.5345 119.69 84.8191 120.914C84.1051 122.141 84.0951 120.722 83.988 124.539C83.8809 128.354 83.9651 127.251 85.0633 125.763C86.1614 124.273 84.1922 129.317 86.794 126.272L88.5832 124.178L89.4571 122.162C89.4571 122.162 89.6799 120.707 89.7385 119.738C89.797 118.768 91.3806 117.083 90.6038 116.012C89.827 114.941 90.8409 114.634 90.8409 114.634L90.838 112.389C90.838 112.389 93.8825 112.845 94.3023 114.019C94.7221 115.193 95.616 113.711 94.7178 112.029C93.8196 110.347 96.747 112.64 96.747 112.64C96.747 112.64 96.7456 111.008 95.8488 109.987C94.952 108.967 94.8335 109.478 93.5783 108.713C92.3231 107.949 91.2464 104.683 89.6328 104.174C88.0206 103.665 89.45 100.143 90.4039 99.4285C91.3578 98.7137 93.5069 98.9664 92.2503 96.5189C90.9951 94.0715 89.3215 93.613 91.2307 92.0295C93.1399 90.4459 94.1209 89.4218 92.7943 87.2652C91.4692 85.1086 91.5206 84.7315 89.013 83.7641C86.5055 82.7967 85.9043 79.4805 85.4859 78.6129C85.0675 77.7453 86.9168 75.7033 88.1077 74.3243C89.3001 72.9466 93.4184 73.198 93.4184 73.198C93.4184 73.198 96.2886 76.3084 98.1393 77.5321C99.9913 78.7546 100.515 80.4503 100.158 81.1146C99.8014 81.7788 99.1803 81.2082 99.0417 83.859C98.9218 86.1684 99.0346 87.455 99.2102 87.248C99.7343 86.6318 100.297 86.0575 101.728 84.0106L102.449 88.0663C102.449 88.0663 104.39 87.3761 104.597 86.458C104.804 85.5387 105.91 87.0693 105.91 87.0693C105.91 87.0693 106.907 83.6618 106.489 83.0494C106.07 82.4369 105.936 82.4751 104.829 80.9963C103.723 79.5175 100.644 74.5708 100.523 73.3459C100.403 72.1209 100.977 70.8627 102.41 71.9324C103.844 73.0033 104.941 74.8727 104.941 74.8727L107.45 76.7323L106.137 77.4742L108.823 77.7269L110.91 75.0206L109.532 70.4806C109.532 70.4806 106.936 70.1763 105.859 68.9525C104.784 67.7288 104.936 66.8994 104.936 66.8994L104.948 66.897Z" fill="white"/>
<path d="M67.1209 85.7518C67.1266 85.7703 69.2657 92.2241 72.086 93.5513C73.2726 94.1096 75.5431 93.7571 77.7565 93.1681C78.122 93.0707 78.4862 92.9672 78.8432 92.86C81.285 91.8371 83.6655 91.1372 83.6797 91.1335L91.4408 88.9017L84.1224 92.0589C84.1096 92.0639 81.7662 93.0535 79.0202 93.8409C76.8226 94.7405 74.7449 95.8373 74.7806 96.7567C74.822 97.8128 74.4693 98.3316 74.2279 98.6865C74.1208 98.843 74.0894 98.8923 75.2961 99.6145C76.2043 100.158 77.8293 100.801 79.5929 101.499C83.07 102.874 87.0712 104.458 87.8152 106.208C88.4249 107.644 88.4935 108.689 88.5506 109.571C88.5877 110.156 88.622 110.662 88.8248 111.13C89.316 112.263 90.8182 114.502 90.8254 114.506L89.9871 113.636C89.9786 113.63 88.3449 112.889 87.7338 111.481C87.4682 110.87 87.4296 110.293 87.3868 109.627C87.3339 108.816 87.2711 107.856 86.7185 106.555C86.1402 105.193 82.3774 103.706 79.1073 102.412C77.2924 101.693 75.6217 101.033 74.6335 100.44C72.5358 99.1844 72.6972 98.9478 73.2227 98.1776C73.3954 97.9237 73.6468 97.5552 73.6168 96.7862C73.5882 96.0801 74.2794 95.3518 75.3104 94.6629C73.8067 94.8712 72.4373 94.8613 71.5262 94.4324C68.2747 92.9019 65.0589 82.5206 65.0518 82.5009L67.118 85.7506L67.1209 85.7518Z" fill="white"/>
<path d="M86.1232 94.7763C85.5363 94.9932 83.2058 95.6562 82.9902 96.4437C82.8674 96.8886 82.7432 97.787 83.2187 98.6705C83.5214 99.235 84.0769 99.8018 85.0451 100.253C87.8239 101.915 89.3105 104.398 89.379 104.046L90.4057 104.631C90.6199 104.87 87.2442 102.497 84.4925 101.14C83.2701 100.57 82.5575 99.8326 82.1606 99.092C81.5408 97.9373 81.6965 96.7826 81.8536 96.212C82.1192 95.2446 87.3184 93.9457 89.3861 93.4281L90.1058 93.2433L86.1232 94.7751V94.7763Z" fill="white"/>
<path d="M62.8809 79.3817C63.0665 78.8481 65.3013 74.233 68.8241 71.194C70.8618 69.4354 73.2109 67.7829 75.577 66.8524C81.893 64.368 88.0861 63.6323 88.0904 63.6323C82.6884 64.6515 79.7039 65.8382 75.667 67.4255C73.4508 68.2968 71.2145 69.8766 69.2568 71.5662C65.8639 74.4942 63.7476 78.0212 63.5834 78.4932L62.8809 79.3817Z" fill="white"/>
<path d="M90.5586 60.8669C90.57 60.8768 96.5247 64.983 96.7332 66.5099C96.9317 67.9739 94.7297 74.0802 94.7226 74.0937L93.8187 73.1461C93.8244 73.1337 95.7422 67.8618 95.5751 66.6245C95.4152 65.4513 91.9766 62.4838 91.9666 62.4764L90.5586 60.8682V60.8669Z" fill="white"/>
<path d="M90.3767 54.4486C90.3581 54.4449 79.6554 53.0228 77.1579 51.0991C75.9726 50.1872 73.9835 48.7256 71.6973 47.3638C69.4368 46.0181 66.8878 44.7722 64.5645 44.2707C62.4197 43.8085 61.4844 42.8362 60.8218 42.1473C60.6476 41.9662 60.4934 41.806 60.3577 41.7049C60.0407 41.4671 59.6066 41.6618 58.0958 43.164C54.4373 46.8019 53.719 47.8149 53.6462 47.9246L51.1272 51.0461L52.6666 47.5277L58.4828 36.884C58.4942 36.863 62.8952 29.1362 67.1749 26.1219C69.2611 24.6517 72.4427 22.9017 75.1144 21.4328C76.9251 20.4358 78.4916 19.6052 79.2456 19.1973C78.9871 19.2688 78.6373 19.3575 78.2017 19.4413C76.9794 19.6779 75.3343 20.0747 73.5565 20.5923C69.9052 21.6546 65.7041 23.2197 63.4964 24.9166C60.9717 26.8563 55.9081 32.6311 51.3286 37.3128C47.8158 40.9039 44.8756 44.0575 44.6342 45.1C44.4115 46.0613 43.212 48.8661 42.378 52.8663C41.794 55.6699 37.3744 73.2949 37.3729 73.5697C37.4172 74.5864 35.875 79.273 35.875 80.2811L36.1677 76.7295C36.1677 76.7221 36.282 75.3049 36.2905 73.5648C35.9964 66.7092 37.6928 53.496 39.6263 47.4439C39.9119 46.553 40.4417 45.2257 41.1014 44.0094C42.0681 42.2274 43.2976 40.6217 43.6161 40.2544C43.9516 39.8687 49.7093 34.296 53.9104 29.9976C56.208 27.645 58.1543 25.7324 58.7369 25.3689C59.6566 24.7959 65.3185 21.9553 70.3264 19.6828C62.1284 21.1272 54.4559 24.0712 46.8861 27.0732C48.3398 24.8944 55.2684 21.1037 57.2961 20.389C59.9707 19.4462 63.6692 18.4764 67.4619 17.4979C72.407 16.2236 77.0079 15.3203 77.7719 15.3203L82.9083 15.8958C80.4451 14.8989 73.428 13.1243 70.7962 13.5002C67.8803 13.8588 61.8642 14.7374 61.8428 14.7399L57.0376 15.7036C67.2548 8.58186 73.4822 12.4785 84.9889 15.0061C82.6484 12.7164 75.8641 6.9034 74.7046 6.12579C73.7878 5.51085 71.7801 4.30438 69.5796 3.50705C67.3134 2.68754 64.0119 2.61113 61.4844 2.48174C58.31 2.3203 54.5872 2.04548 52.768 2.38191C49.7649 3.12995 46.7005 2.54089 46.6148 2.53842L46.472 2.55321C46.6091 2.50638 50.2019 2.89704 53.1064 1.92718C55.4226 1.69303 58.1972 1.85324 61.4829 2.02084C65.1 2.20322 66.0696 1.22228 69.998 2.64317C72.3056 3.4787 74.4076 4.74309 75.3672 5.38638C76.9351 6.4388 85.3359 14.7214 85.3588 14.7448L86.4926 15.8786L84.8147 15.5015C84.7918 15.4966 79.1285 13.9204 74.6646 13.0011C78.2089 13.8391 82.7227 15.4904 82.7398 15.4953L86.2055 16.5675L82.5299 16.4011C82.5199 16.4011 79.0642 16.2557 77.7705 16.2557C77.0893 16.2557 72.6269 17.2564 67.7689 18.5084C63.9862 19.4844 59.9893 20.2312 57.3732 21.153C53.2778 22.5961 50.696 24.4656 48.7397 25.7509C49.5022 25.3775 49.7364 25.656 51.7127 24.6024C56.2237 22.9067 67.6575 19.6471 73.9364 17.8208C75.7142 17.387 76.7952 17.1393 78.6944 17.0506C79.1885 17.0074 82.5942 17.2428 85.3059 17.3365C82.5828 17.5497 77.939 17.5632 76.1083 18.0303C74.8503 18.5097 73.2324 19.4278 71.4959 20.2066L71.3174 20.2879C71.9572 20.0809 72.5926 19.8862 73.2124 19.705C75.0259 19.1776 76.1883 19.1345 77.4449 18.8929C78.9043 18.6119 79.694 18.6206 80.6864 18.5331C80.0281 19.0322 76.5581 21.7421 75.6928 22.2178C73.0481 23.672 70.335 25.7817 68.2915 27.2224C64.2532 30.0678 60.1849 37.0614 60.055 37.2882L55.7211 44.1215C56.1723 43.6594 57.6474 41.8663 58.2357 41.281C60.3377 39.1909 60.1735 40.3345 61.0603 41C61.2602 41.1491 61.4415 41.3377 61.6472 41.5521C62.2141 42.1424 63.5364 42.5281 65.3413 42.9175C67.8046 43.4487 70.3079 44.8905 72.6612 46.2917C74.9902 47.6781 76.9922 49.1926 78.2003 50.1231C80.4893 51.8866 86.6882 53.5441 86.7068 53.5478L90.3724 54.4511L90.3767 54.4486ZM49.9006 36.184C54.2517 31.7352 59.5909 26.7664 62.3226 24.5728C60.8189 25.327 59.7237 25.9013 59.3695 26.1219C58.8726 26.4312 56.9905 28.2908 54.7386 30.5965C50.5375 34.8974 45.114 40.6919 44.7842 41.0715C44.4943 41.4054 43.4604 43.0494 42.5222 44.7796C41.8854 45.9528 41.297 47.1568 41.0286 47.9985C40.3688 50.0627 37.4129 68.5245 37.2687 69.4377L37.0759 72.0342C37.9099 68.4493 39.9576 59.2277 41.3199 52.6987C42.1738 48.5999 42.8678 45.2713 43.0549 44.4641C43.3362 43.2515 46.2892 39.8798 49.9035 36.1852L49.9006 36.184ZM69.4911 12.9049C70.1094 12.8285 73.6365 12.847 74.6675 12.9998C66.5694 11.4569 66.765 12.0521 58.8997 14.7498C61.2459 14.5107 67.8317 13.1095 69.4911 12.9049Z" fill="white"/>
<path d="M4.19088 67.0715C4.22515 67.0173 16.9956 43.8541 20.5327 41.8737L21.4651 41.3339C22.3334 40.8225 23.0288 40.4134 23.6985 40.2741C25.3678 39.9266 26.366 41.0702 27.674 45.7519C28.4251 48.4372 29.0777 51.4232 29.6917 54.2342C30.3272 57.5036 32.5106 67.1208 31.2354 58.2257C31.0212 56.9934 30.7956 55.7043 30.5814 54.3574C29.8859 49.9727 32.1907 46.5147 34.1527 43.5744C34.8596 42.5121 35.5236 41.5188 35.9591 40.5982C36.5246 39.4041 36.9801 37.6899 37.7698 36.1458C39.4348 32.8961 41.5825 29.5293 42.0052 27.9642C42.3236 26.7824 43.0048 24.9252 44.2985 23.3183C45.7422 21.5264 47.6557 19.7531 49.2965 18.3802C49.8762 17.8947 50.843 17.5151 51.664 16.8632C55.2154 14.0411 59.5965 9.75996 59.8007 7.75493C59.9906 5.31735 57.6887 4.81701 57.2417 4.58903L54.867 4.01969C54.8727 3.93096 62.1697 4.94888 61.8398 7.94348C61.5956 10.3367 56.1393 14.6721 52.4523 17.6026C51.6255 18.2595 50.8858 18.8473 50.3417 19.3033C48.7538 20.6317 46.9846 22.4273 45.5794 24.1723C44.3614 25.6831 43.4246 27.1422 43.1404 28.1922C42.6935 29.8472 40.8157 33.5135 39.1307 36.8051C38.3153 38.3973 37.5428 39.9057 37.0358 40.9766C36.5689 41.9612 35.8877 42.9828 35.1595 44.0747C33.2902 46.8783 31.0926 50.1748 31.7352 54.2243C31.9222 55.4061 32.1607 56.7703 32.3892 58.0779C32.5648 59.0859 32.8647 61.77 32.5848 65.1873C31.5281 63.4657 29.5289 58.9146 28.5479 54.4202C27.9353 51.6191 27.2856 48.6442 26.543 45.9885C25.4478 42.0746 24.8237 41.0739 23.9727 41.2514C23.5129 41.3463 22.896 41.711 22.1234 42.1646C21.8407 42.3309 21.5323 42.5121 21.1667 42.7166C17.8938 44.5491 6.6313 63.3634 6.59845 63.4164L4.18945 67.0715H4.19088ZM32.3006 64.576C32.2421 64.6315 32.1664 64.6574 32.2507 64.6179L32.3006 64.576Z" fill="white"/>
<path d="M80.4115 53.1439C80.3744 53.367 81.3311 55.4718 81.2254 55.791C80.0274 59.4301 81.7381 58.0622 78.7593 61.6484C78.2724 62.2855 77.7055 62.6453 77.457 63.1826C68.0481 68.2525 63.1587 70.8799 75.9962 63.1617C77.2357 61.88 77.4127 61.8579 77.9354 61.1727C78.7793 60.0685 79.5647 59.599 79.8346 58.13C80.133 56.5218 80.2944 56.0954 80.6685 54.8027L80.4115 53.1439Z" fill="white"/>
<path d="M107.926 125.216C108.31 125.493 111.206 128.508 112.217 131.147C112.857 132.813 113.364 134.601 113.401 136.047L113.708 141.574V142.476L112.237 136.066C112.203 134.743 111.718 133.055 111.109 131.462C110.158 128.979 108.962 126.8 108.673 126.592L107.926 125.216Z" fill="white"/>
<path d="M94.5322 44.394C94.6051 44.2696 98.2078 41.3452 98.7419 40.8325C100.975 38.6907 106.816 33.0922 107.657 29.543C108.695 25.1669 108.688 22.8514 108.686 22.8477L108.978 23.141C108.979 23.1459 109.744 25.1164 108.654 29.718C107.757 33.5001 101.782 39.228 99.4973 41.4179C99.0175 41.8776 98.7119 42.1709 98.7005 42.1894L94.5322 44.394Z" fill="white"/>
<path d="M114.328 42.9444C114.299 42.8458 114.002 39.5271 113.928 38.8666C113.573 35.7278 112.494 29.0349 110.692 27.0668C110.037 26.3509 109.567 25.7162 109.229 25.174C106.854 58.8417 108.256 34.838 108.378 22.9989L108.665 20.91L109.332 22.9742V22.9828C109.333 22.9865 109.035 24.4013 111.191 26.7588C113.27 29.0312 115.42 39.7181 114.327 42.9456L114.328 42.9444Z" fill="white"/>
<path d="M108.363 20.6453C108.386 20.665 119.463 28.6925 121.921 33.8918C122.796 35.7452 123.693 38.4428 124.441 40.3456C125.786 43.7703 126.788 46.7291 126.857 47.0015L127.518 49.7275C127.453 49.465 124.798 44.0328 123.461 40.6303C122.712 38.7213 121.856 36.6683 121.001 34.8592C118.629 29.8386 110.582 23.1494 110.56 23.1309L108.363 20.6453Z" fill="white"/>
<path d="M108.741 20.9907C108.761 20.9969 117.438 23.2841 118.767 25.0538L119.838 26.6152C118.75 25.1659 109.609 21.5416 109.591 21.5354L108.743 20.9895L108.741 20.9907Z" fill="white"/>
<path d="M108.454 21.5343C108.466 21.5466 114.744 26.8285 115.258 30.0474C115.737 33.0457 115.401 36.7526 115.401 36.7526L114.8 33.705C114.8 33.705 114.607 33.3168 114.106 30.1854C113.641 27.2758 109.511 23.2411 109.499 23.23L108.454 21.5343Z" fill="white"/>
<path d="M107.637 22.2658C109.352 18.9865 110.907 13.314 115.174 11.9264C115.982 11.6639 116.87 11.4926 118.159 11.325C119.642 11.1327 120.503 11.1685 121.895 11.1278C125.568 11.2326 122.758 11.15 120.32 11.6553C117.75 11.9412 115.473 12.2702 113.514 13.8525C111.975 15.4164 110.337 18.634 108.751 21.1862L107.637 22.267V22.2658Z" fill="white"/>
<path d="M70.7124 43.593C70.6966 43.5943 65.6802 42.4901 64.8448 38.9495C64.4592 37.3167 64.3893 36.1151 64.7091 34.9148C65.0247 33.7268 65.7159 32.5697 66.8554 31.0132C69.2373 27.7586 71.6562 25.7782 71.6562 25.7782L69.8327 28.7654C69.8327 28.7654 69.8756 28.7654 67.8407 31.5481C66.7711 33.0084 66.1257 34.0793 65.8444 35.1391C65.5659 36.1866 65.633 37.2625 65.9843 38.7487C66.6212 41.4475 73.0342 44.3719 73.0485 44.3719L70.7109 43.5918L70.7124 43.593Z" fill="white"/>
<path d="M119.113 78.1297C119.119 78.1198 121.759 72.2662 122.455 71.3974C122.935 70.7997 124.991 68.5975 126.312 67.3269C126.879 66.7834 131.458 60.8213 131.63 60.968C130.61 62.2151 127.854 66.7736 126.786 67.8001C125.476 69.0584 123.649 71.3025 123.212 71.8472C122.6 72.6088 120.748 76.2306 120.744 76.2417L119.113 78.1297Z" fill="white"/>
<path d="M68.5176 66.3249C68.519 66.32 72.5202 60.0856 74.3137 57.0232L77.5424 52.8381L75.3704 57.574C73.6712 60.4762 71.0551 64.0229 68.5176 66.3249Z" fill="white"/>
<path d="M118.732 71.6732C118.737 71.656 120.255 65.7296 121.525 63.1318C122.641 60.8532 122.809 57.1241 122.893 56.7211L125.634 47.762L124.698 57.2239C124.698 57.4149 124.603 58.0311 124.563 58.2135C124.561 58.2209 123.866 60.9247 122.596 63.5212C121.381 66.0056 118.165 74.1761 118.161 74.1921L118.731 71.672L118.732 71.6732Z" fill="white"/>
<path d="M124.761 73.1703C124.762 73.1642 125.562 71.0692 126.986 69.6532C128.269 68.3765 128.639 68.2151 128.639 68.2138L132.65 62.4772C132.596 62.4551 129.373 67.7813 128.688 68.6723C128.359 69.0999 127.977 69.5842 127.557 70.0808C126.23 71.4007 124.481 74.3706 124.479 74.3768L124.761 73.1716V73.1703Z" fill="white"/>
<path d="M115.249 89.9787C115.253 89.9774 117.841 88.1462 118.285 86.8953C118.526 86.2163 119.185 85.1898 119.833 84.5218C120.75 83.5791 121.436 83.2131 122.013 82.8656C122.242 82.7275 124.769 81.9253 124.769 81.7404C127.211 76.3871 125.553 80.2037 125.553 81.4089C125.553 82.3258 124.682 82.5673 123.741 82.8286C123.353 82.9358 122.946 83.0504 122.68 83.2106C122.166 83.5212 121.152 84.0511 120.298 84.9297C119.733 85.5102 119.25 86.3667 119.06 86.899C118.448 88.6255 116.276 89.312 116.27 89.3132L115.249 89.9799V89.9787Z" fill="white"/>
<path d="M100.726 72.5002C100.726 72.4965 100.155 68.0144 102.993 65.7691C104.316 64.7228 105.471 63.594 106.215 62.3986C106.937 61.2377 107.269 60.0128 106.975 58.741C106.363 56.1025 104.446 54.148 104.441 54.1419L104.343 54.1406L101.721 50.5865L105.115 53.6699C105.121 53.676 107.173 55.7698 107.827 58.5943C108.166 60.0534 107.796 62.3814 106.98 63.6901C106.188 64.9631 104.968 65.2207 103.577 66.3199C100.99 68.3681 101.188 71.5007 101.188 71.5032C101.086 71.5981 100.944 71.672 100.79 72.0651L100.726 72.5002Z" fill="white"/>
<path d="M63.3142 76.7828L60.4055 69.629C61.3908 70.4349 61.9405 71.3272 62.239 72.7012L62.2575 72.785C62.3961 73.4345 62.9615 76.084 63.3657 76.1062L63.3157 76.7828C62.3018 76.7261 61.6478 73.6588 61.4879 72.907L61.4693 72.822C60.9824 70.573 57.8337 68.8144 57.8251 68.8095L55.5518 67.5402L65.5062 70.08L63.3157 76.7828H63.3142Z" fill="white"/>
<path d="M61.0504 83.3414L58.4772 76.8013C59.3668 77.542 59.8581 78.3615 60.1151 79.6148L60.1308 79.6924C60.2508 80.2852 60.7363 82.703 61.1033 82.7264L61.0504 83.3414C60.1279 83.2822 59.5639 80.4823 59.4268 79.7959L59.4111 79.7195C58.9927 77.6664 56.141 76.0397 56.1339 76.0348L54.0762 74.8591L63.1181 77.2536L61.0504 83.3426V83.3414Z" fill="white"/>
<path d="M59.2011 89.0803L57.0163 83.3745C57.7845 84.0252 58.2044 84.7399 58.4171 85.8318L58.43 85.8996C58.5285 86.4159 58.9326 88.5232 59.2511 88.5454L59.1997 89.0803C58.3971 89.0236 57.9302 86.5835 57.8159 85.9858L57.8031 85.9181C57.4561 84.1287 54.99 82.6955 54.9828 82.693L53.2021 81.6578L61.0503 83.796L59.1997 89.0803H59.2011Z" fill="white"/>
<path d="M57.7481 94.2084L55.8689 89.3381C56.5272 89.8927 56.887 90.5027 57.0698 91.4356L57.0812 91.4923C57.1669 91.9335 57.5167 93.7327 57.7895 93.7512L57.7466 94.2084C57.0612 94.1615 56.6571 92.0776 56.5571 91.5674L56.5457 91.5108C56.2444 89.9839 54.1339 88.7639 54.1281 88.7602L52.6045 87.879L59.3131 89.6918L57.7452 94.2096L57.7481 94.2084Z" fill="white"/>
<path d="M56.7638 98.9614L54.8489 95.066C55.4315 95.4837 55.7742 95.9644 55.997 96.721L56.0098 96.7678C56.1141 97.1252 56.5382 98.5831 56.7638 98.5831V98.9614C56.1969 98.9614 55.7057 97.2731 55.5857 96.859L55.5729 96.8134C55.2087 95.5749 53.3823 94.6926 53.3766 94.6901L52.0586 94.053L57.7077 95.1609L56.7652 98.9627L56.7638 98.9614Z" fill="white"/>
<path d="M73.5824 95.5365C71.7732 96.0319 63.458 130.326 84.0052 141.233C85.5117 141.519 86.7012 141.779 87.7265 141.994C91.692 142.822 93.2371 142.972 101.414 141.316C112.443 138.171 112.399 136.789 112.399 136.786L112.655 137.896C112.655 137.901 113.317 138.712 101.686 142.028C71.0463 150.764 61.8787 117.43 73.581 95.5365H73.5824Z" fill="white"/>
<path d="M64.7545 83.4951C64.7446 83.5087 61.6358 89.1417 59.7895 95.7323C59.3225 97.3972 58.8399 99.0042 58.3758 100.546C56.9921 105.143 55.834 108.336 55.7397 111.688C55.6612 114.536 55.6326 115.622 55.2442 118.547C55.2442 118.547 54.7858 116.762 54.9158 112.067C55.0115 108.626 56.6593 104.55 58.0559 99.91C58.5186 98.3696 59.0027 96.7663 59.4667 95.1075C61.3431 88.411 64.1448 84.2925 64.1548 84.2777L64.7545 83.4951Z" fill="white"/>
<path d="M87.4625 82.3667C87.4596 82.3581 83.7055 76.4626 77.7294 76.9407C72.6358 77.3498 70.9679 77.372 68.5518 74.1334C68.5546 74.1371 71.5548 76.6844 77.6508 76.1964C84.3538 75.6591 85.2834 78.0548 85.5733 78.3062C85.886 78.9852 86.0002 79.3931 86.3073 80.1719L87.4625 82.3667Z" fill="white"/>
<path d="M77.7917 197.825C83.2423 200.105 80.1835 199.083 79.6338 198.595C78.3629 198.29 77.8145 198.383 77.4975 198.311L80.472 193.274C81.2688 193.457 81.226 195.989 81.216 196.609L81.2145 196.678C81.1888 198.535 83.3737 200.365 83.3794 200.37L84.9559 201.692L77.4961 198.311L77.7903 197.825H77.7917Z" fill="white"/>
<path d="M81.3478 191.966C85.5104 194.348 83.5755 193.529 83.07 192.951C82.3688 192.549 81.2893 192.474 81.0137 192.374L84.4108 188.139C85.1048 188.387 84.7093 190.669 84.6122 191.228L84.6008 191.291C84.3152 192.966 86.0287 194.847 86.0344 194.852L87.2711 196.212L81.0137 192.373L81.3478 191.965V191.966Z" fill="white"/>
<path d="M85.2146 187.209C88.5275 189.538 87.3266 189.137 86.4727 188.094C86.1185 187.87 85.1132 187.643 84.8848 187.537L88.2448 184.12C88.8203 184.387 88.2534 186.333 88.1134 186.81L88.0977 186.863C87.685 188.291 88.9845 190.047 88.9873 190.052L89.9241 191.32L84.8848 187.537L85.2146 187.209Z" fill="white"/>
<path d="M89.6215 182.884L91.0724 184.054C90.3584 183.745 90.7711 184.154 90.347 183.469C89.9171 183.114 89.5059 183.293 89.3174 183.19L92.4118 180.403C92.8845 180.659 92.269 182.29 92.1177 182.689L92.1005 182.734C91.6521 183.931 92.6403 185.492 92.6432 185.497L93.3557 186.625L89.3174 183.147L89.6201 182.884H89.6215Z" fill="white"/>
<path d="M74.7107 205.57C80.0928 206.734 79.5245 207.329 77.254 206.393C75.5875 206.398 74.9049 206.25 74.4951 206.231L76.6471 199.395C77.6781 199.443 78.3792 202.557 78.5506 203.321L78.5691 203.407C79.0904 205.691 82.3133 207.452 82.3219 207.457L84.6481 208.729L74.4951 206.231L74.7122 205.57H74.7107Z" fill="white"/>
<path d="M119.999 130.824L121.878 130.008C121.508 130.355 120.953 130.607 120.068 131.312L119.341 126.296C119.694 126.015 120.583 127.792 120.802 128.228L120.826 128.278C121.481 129.579 122.924 129.73 122.926 129.73L123.967 129.841L120.068 131.313L120.001 130.825L119.999 130.824Z" fill="white"/>
<path d="M118.89 125.694C121.96 125.08 120.759 125.183 118.89 126.17L118.624 121.472C118.967 121.29 119.649 123.074 119.816 123.512L119.835 123.561C120.336 124.868 121.646 125.296 121.648 125.299L122.594 125.609L118.915 126.148L118.89 125.694Z" fill="white"/>
<path d="M118.256 120.825L119.658 120.411C119.312 120.656 119.099 120.693 118.383 121.206L117.052 117.282C117.296 117.106 118.28 118.567 118.52 118.926L118.547 118.967C119.269 120.038 120.46 120.315 120.463 120.316L121.323 120.517L118.381 121.207L118.254 120.826L118.256 120.825Z" fill="white"/>
<path d="M116.109 116.622L117.333 116.332C117.277 116.575 116.869 116.531 116.233 116.944L114.942 113.638C115.152 113.503 116.063 114.751 116.286 115.058L116.312 115.093C116.982 116.008 118.038 116.284 118.041 116.284L118.805 116.484L116.233 116.944L116.11 116.623L116.109 116.622Z" fill="white"/>
<path d="M121.022 136.39C125.273 135.238 123.011 136.317 122.918 136.123C122.735 135.731 121.197 136.807 120.975 136.916L121.093 131.732C121.653 131.457 122.517 133.307 122.728 133.76L122.751 133.812C123.388 135.166 125.391 135.372 125.397 135.373L126.844 135.523L121.007 136.89L121.02 136.389L121.022 136.39Z" fill="white"/>
<path d="M117.561 149.709C120.854 151.012 118.67 150.479 118.566 150.37C117.972 150.136 117.628 150.074 117.461 150.044L118.458 146.58C118.877 146.654 119.11 148.312 119.166 148.718L119.173 148.764C119.346 149.98 120.631 151.051 120.634 151.055L121.562 151.829L117.462 150.044L117.562 149.71L117.561 149.709Z" fill="white"/>
<path d="M119.322 146.39C122.318 147.567 120.435 146.945 120.271 146.764C119.745 146.656 119.315 146.794 119.158 146.765L120.001 143.59C120.392 143.663 120.686 145.157 120.758 145.523L120.766 145.563C120.985 146.659 122.224 147.641 122.227 147.644L123.121 148.353L119.244 146.69L119.321 146.39H119.322Z" fill="white"/>
<path d="M120.391 143.057C123.543 144.288 121.454 143.678 121.381 143.6C121.005 143.45 120.48 143.38 120.321 143.349L121 140.328C121.398 140.404 121.735 141.871 121.818 142.23L121.828 142.271C122.078 143.347 123.356 144.325 123.36 144.328L124.284 145.035L120.321 143.351L120.391 143.059V143.057Z" fill="white"/>
<path d="M121.307 140.05C125.404 140.31 123.454 140.358 122.698 140.139C122.307 140.324 121.527 140.357 121.31 140.375L121.24 137.02C121.786 136.974 122.694 138.391 122.917 138.739L122.941 138.778C123.611 139.818 125.598 140.433 125.604 140.434L127.039 140.879L121.309 140.377L121.307 140.051V140.05Z" fill="white"/>
<path d="M114.877 155.309C118.912 156.441 116.376 155.958 116.142 155.663C115.491 155.55 114.975 155.758 114.767 155.746L115.862 151.235C116.386 151.267 116.743 153.32 116.83 153.824L116.84 153.881C117.104 155.387 118.745 156.549 118.749 156.553L119.933 157.392L114.768 155.744L114.878 155.308L114.877 155.309Z" fill="white"/>
<path d="M119.317 79.7279C119.748 79.84 119.804 80.0187 119.899 80.333C119.935 80.8851 119.811 81.3768 119 81.5234C118.113 81.5 118.083 81.1032 118.083 81.1007C119.505 81.6997 119.947 80.4587 119.317 79.7279Z" fill="white"/>
<path d="M121.12 57.5937L120.92 57.3805C119.755 56.1371 113.987 49.9852 111.661 48.9796C109.116 47.8791 99.0062 47.4133 98.9834 47.4133L101.131 47.1705C101.154 47.1705 109.293 47.2556 111.985 48.4189C114.45 49.4849 121.051 56.9541 122.235 58.2173L122.249 59.0134L121.12 57.5925V57.5937Z" fill="white"/>
<path d="M123.65 75.093C124.854 75.3333 130.93 73.2297 130.93 72.754L134.044 70.3497C134.044 70.6455 131.39 73.2753 130.958 73.5144C129.819 74.1466 127.487 74.9439 125.763 75.1312L123.648 75.0943L123.65 75.093Z" fill="white"/>
<path d="M118.074 80.1545C118.404 79.5174 119.118 79.0614 119.452 78.9468L122.706 75.6996L120.182 82.4282L119.962 82.5231C118.477 83.1664 116.906 83.7641 116.92 83.5386C117.076 81.0394 116.924 82.374 118.074 80.1545ZM117.962 82.0745L118.052 82.0979C120.174 82.4948 120.077 80.7744 120.493 79.3732C118.921 79.8477 118.278 80.9038 117.962 82.0745Z" fill="white"/>
<path d="M54.8803 110.241C61.1391 110.411 66.9682 111.032 72.3702 112.104C72.3159 112.933 72.3002 113.719 72.3402 114.418C72.4916 117.153 73.5754 122.509 75.963 127.388C68.4418 126.408 60.0125 126.688 55.4629 120.672C55.1559 119.353 54.9332 118.092 54.7989 116.915C54.5833 115.024 54.6533 112.693 54.8817 110.241H54.8803ZM83.9968 115.352C86.2216 116.176 88.3521 117.102 90.3899 118.124C90.1014 118.726 89.7701 119.303 89.743 119.736C89.6845 120.706 89.4617 122.16 89.4617 122.16L88.5878 124.176L86.7985 126.27C84.1967 129.315 86.1659 124.271 85.0678 125.761C83.9697 127.251 83.884 128.353 83.9925 124.538C84.0996 120.722 84.1096 122.139 84.8236 120.913C85.5376 119.688 84.4238 119.269 84.8393 117.636C85.0235 116.915 84.6408 116.143 83.9982 115.353L83.9968 115.352ZM113.258 141.776C115.144 146.618 116.125 152.007 116.198 157.791C116.125 157.949 116.193 158.018 116.201 158.086C116.343 159.537 92.2862 182.996 93.4372 180.242C93.8641 179.222 95.3735 176.259 96.3274 173.467C97.237 170.8 97.5526 168.398 97.584 168.362C98.7136 167.078 102.843 161.645 105.579 157.551C108.35 153.408 110.963 149.201 111.441 147.712C112.101 145.658 112.858 143.128 113.259 141.774L113.258 141.776Z" fill="white"/>
<path d="M68.859 111.479C69.3788 111.561 69.8943 111.647 70.4055 111.737C70.2956 116.631 70.7954 122.023 72.469 127C71.7778 126.931 71.0867 126.862 70.3955 126.789C68.8747 122.089 68.365 116.801 68.859 111.481V111.479Z" fill="white"/>
<path d="M55.0919 110.246L55.8401 110.27C55.7859 110.741 55.7516 111.212 55.7387 111.687C55.6602 114.535 55.6316 115.622 55.2432 118.546C55.2432 118.546 54.7849 116.762 54.9148 112.066C54.9305 111.478 54.9933 110.871 55.0904 110.246H55.0919Z" fill="white"/>
<path d="M115.764 151.637C115.939 152.952 116.062 154.293 116.132 155.662C115.485 155.552 114.974 155.758 114.766 155.746L115.762 151.637H115.764ZM116.134 155.672L116.156 156.188L114.767 155.744L114.877 155.308C115.4 155.455 115.812 155.574 116.134 155.67V155.672Z" fill="white"/>
</svg>
